<?xml version="1.0" encoding="utf-8"?>
<!-- Generator: Adobe Illustrator 25.0.0, SVG Export Plug-In . SVG Version: 6.00 Build 0)  -->
<svg version="1.1" id="Camada_1" xmlns="http://www.w3.org/2000/svg" xmlns:xlink="http://www.w3.org/1999/xlink" x="0px" y="0px"
	 viewBox="0 0 200 200" style="enable-background:new 0 0 200 200;" xml:space="preserve">
<style type="text/css">
	.st0{fill:#64666D;}
</style>
<path class="st0" d="M176.6,80.6H22.7c-10.8,0-19.5-8.7-19.5-19.5l0,0c0-10.8,8.7-19.5,19.5-19.5h153.9c10.8,0,19.5,8.7,19.5,19.5
	l0,0C196.1,71.9,187.3,80.6,176.6,80.6z"/>
<path class="st0" d="M176.6,158.3h-126c-10.8,0-19.5-8.7-19.5-19.5l0,0c0-10.8,8.7-19.5,19.5-19.5h126c10.8,0,19.5,8.7,19.5,19.5
	l0,0C196.1,149.6,187.3,158.3,176.6,158.3z"/>
</svg>
