<?xml version="1.0" encoding="utf-8"?>
<!-- Generator: Adobe Illustrator 25.0.0, SVG Export Plug-In . SVG Version: 6.00 Build 0)  -->
<svg version="1.1" id="Camada_1" xmlns="http://www.w3.org/2000/svg" xmlns:xlink="http://www.w3.org/1999/xlink" x="0px" y="0px"
	 viewBox="0 0 200 200" style="enable-background:new 0 0 200 200;" xml:space="preserve">
<style type="text/css">
	.st0{fill:#FFFFFF;}
</style>
<path class="st0" d="M80.1,23v106.9L44.9,94.7c-7.6-7.6-19.9-7.6-27.5,0h0c-7.6,7.6-7.6,19.9,0,27.5l68.5,68.5
	c0.5,0.5,0.9,0.9,1.4,1.3c0.2,0.2,0.5,0.3,0.7,0.5c0.3,0.2,0.5,0.4,0.8,0.6c0.3,0.2,0.6,0.3,0.8,0.5c0.3,0.2,0.5,0.3,0.8,0.5
	c0.3,0.2,0.6,0.3,0.9,0.4c0.3,0.1,0.6,0.3,0.8,0.4c0.3,0.1,0.6,0.2,0.9,0.3c0.3,0.1,0.6,0.2,0.9,0.3c0.3,0.1,0.6,0.2,0.9,0.2
	c0.3,0.1,0.6,0.2,1,0.2c0.3,0.1,0.7,0.1,1,0.2c0.3,0,0.6,0.1,0.9,0.1c0.6,0.1,1.3,0.1,1.9,0.1h0c0.6,0,1.2,0,1.9-0.1c0,0,0,0,0.1,0
	c0.3,0,0.6-0.1,0.9-0.1c0.3,0,0.6-0.1,0.9-0.1c0,0,0.1,0,0.1,0c0.3-0.1,0.6-0.2,1-0.2c0.3-0.1,0.6-0.1,0.9-0.2
	c0.3-0.1,0.6-0.2,0.9-0.3c0.3-0.1,0.6-0.2,0.9-0.3c0.3-0.1,0.6-0.3,0.8-0.4c0.3-0.1,0.6-0.3,0.9-0.4c0.3-0.1,0.5-0.3,0.8-0.5
	c0.3-0.1,0.5-0.3,0.8-0.4c0,0,0.1,0,0.1-0.1c0.3-0.2,0.6-0.4,0.8-0.6c0.2-0.2,0.5-0.3,0.7-0.5c0.5-0.4,1-0.8,1.4-1.3l68.5-68.5
	c7.6-7.6,7.6-19.9,0-27.5s-19.9-7.6-27.5,0l-35.2,35.2V23c0-10.8-8.7-19.5-19.5-19.5h0C88.9,3.6,80.1,12.3,80.1,23z"/>
</svg>
