<?xml version="1.0" encoding="utf-8"?>
<!-- Generator: Adobe Illustrator 25.0.0, SVG Export Plug-In . SVG Version: 6.00 Build 0)  -->
<svg version="1.1" id="Camada_1" xmlns="http://www.w3.org/2000/svg" xmlns:xlink="http://www.w3.org/1999/xlink" x="0px" y="0px"
	 viewBox="0 0 200 200" style="enable-background:new 0 0 200 200;" xml:space="preserve">
<style type="text/css">
	.st0{fill:#FFFFFF;}
</style>
<path class="st0" d="M22.7,119.5h106.9l-35.2,35.2c-7.6,7.6-7.6,19.9,0,27.5v0c7.6,7.6,19.9,7.6,27.5,0l68.5-68.5
	c0.5-0.5,0.9-0.9,1.3-1.4c0.2-0.2,0.3-0.5,0.5-0.7c0.2-0.3,0.4-0.5,0.6-0.8c0.2-0.3,0.3-0.6,0.5-0.8c0.2-0.3,0.3-0.5,0.5-0.8
	c0.2-0.3,0.3-0.6,0.4-0.9c0.1-0.3,0.3-0.6,0.4-0.8c0.1-0.3,0.2-0.6,0.3-0.9c0.1-0.3,0.2-0.6,0.3-0.9c0.1-0.3,0.2-0.6,0.2-0.9
	c0.1-0.3,0.2-0.6,0.2-1c0.1-0.3,0.1-0.7,0.2-1c0-0.3,0.1-0.6,0.1-0.9c0.1-0.6,0.1-1.3,0.1-1.9v0c0-0.6,0-1.2-0.1-1.9c0,0,0,0,0-0.1
	c0-0.3-0.1-0.6-0.1-0.9c0-0.3-0.1-0.6-0.1-0.9c0,0,0-0.1,0-0.1c-0.1-0.3-0.2-0.6-0.2-1c-0.1-0.3-0.1-0.6-0.2-0.9
	c-0.1-0.3-0.2-0.6-0.3-0.9c-0.1-0.3-0.2-0.6-0.3-0.9c-0.1-0.3-0.3-0.6-0.4-0.8c-0.1-0.3-0.3-0.6-0.4-0.9c-0.1-0.3-0.3-0.5-0.5-0.8
	c-0.1-0.3-0.3-0.5-0.4-0.8c0,0,0-0.1-0.1-0.1c-0.2-0.3-0.4-0.6-0.6-0.8c-0.2-0.2-0.3-0.5-0.5-0.7c-0.4-0.5-0.8-1-1.3-1.4l-68.5-68.5
	c-7.6-7.6-19.9-7.6-27.5,0s-7.6,19.9,0,27.5l35.2,35.2H22.7c-10.8,0-19.5,8.7-19.5,19.5v0C3.2,110.8,11.9,119.5,22.7,119.5z"/>
</svg>
