<?xml version="1.0" encoding="utf-8"?>
<!-- Generator: Adobe Illustrator 25.0.0, SVG Export Plug-In . SVG Version: 6.00 Build 0)  -->
<svg version="1.1" id="Camada_1" xmlns="http://www.w3.org/2000/svg" xmlns:xlink="http://www.w3.org/1999/xlink" x="0px" y="0px"
	 viewBox="0 0 200 200" style="enable-background:new 0 0 200 200;" xml:space="preserve">
<style type="text/css">
	.st0{fill:#FFFFFF;}
</style>
<path class="st0" d="M119.1,177V70.1l35.2,35.2c7.6,7.6,19.9,7.6,27.5,0h0c7.6-7.6,7.6-19.9,0-27.5L113.4,9.3
	c-0.5-0.5-0.9-0.9-1.4-1.3c-0.2-0.2-0.5-0.3-0.7-0.5c-0.3-0.2-0.5-0.4-0.8-0.6c-0.3-0.2-0.6-0.3-0.8-0.5c-0.3-0.2-0.5-0.3-0.8-0.5
	c-0.3-0.2-0.6-0.3-0.9-0.4c-0.3-0.1-0.6-0.3-0.8-0.4c-0.3-0.1-0.6-0.2-0.9-0.3c-0.3-0.1-0.6-0.2-0.9-0.3c-0.3-0.1-0.6-0.2-0.9-0.2
	c-0.3-0.1-0.6-0.2-1-0.2c-0.3-0.1-0.7-0.1-1-0.2c-0.3,0-0.6-0.1-0.9-0.1c-0.6-0.1-1.3-0.1-1.9-0.1h0c-0.6,0-1.2,0-1.9,0.1
	c0,0,0,0-0.1,0c-0.3,0-0.6,0.1-0.9,0.1c-0.3,0-0.6,0.1-0.9,0.1c0,0-0.1,0-0.1,0c-0.3,0.1-0.6,0.2-1,0.2c-0.3,0.1-0.6,0.1-0.9,0.2
	c-0.3,0.1-0.6,0.2-0.9,0.3c-0.3,0.1-0.6,0.2-0.9,0.3c-0.3,0.1-0.6,0.3-0.8,0.4c-0.3,0.1-0.6,0.3-0.9,0.4c-0.3,0.1-0.5,0.3-0.8,0.5
	c-0.3,0.1-0.5,0.3-0.8,0.4c0,0-0.1,0-0.1,0.1C88.5,7,88.2,7.2,88,7.5c-0.2,0.2-0.5,0.3-0.7,0.5c-0.5,0.4-1,0.8-1.4,1.3L17.4,77.8
	c-7.6,7.6-7.6,19.9,0,27.5s19.9,7.6,27.5,0l35.2-35.2V177c0,10.8,8.7,19.5,19.5,19.5h0C110.4,196.4,119.1,187.7,119.1,177z"/>
</svg>
