<?xml version="1.0" encoding="utf-8"?>
<!-- Generator: Adobe Illustrator 25.0.0, SVG Export Plug-In . SVG Version: 6.00 Build 0)  -->
<svg version="1.1" id="Camada_1" xmlns="http://www.w3.org/2000/svg" xmlns:xlink="http://www.w3.org/1999/xlink" x="0px" y="0px"
	 viewBox="0 0 200 200" style="enable-background:new 0 0 200 200;" xml:space="preserve">
<style type="text/css">
	.st0{fill:#FFFFFF;}
</style>
<path class="st0" d="M176.6,80.5H69.7l35.2-35.2c7.6-7.6,7.6-19.9,0-27.5v0c-7.6-7.6-19.9-7.6-27.5,0L8.9,86.2
	c-0.5,0.5-0.9,0.9-1.3,1.4c-0.2,0.2-0.3,0.5-0.5,0.7c-0.2,0.3-0.4,0.5-0.6,0.8c-0.2,0.3-0.3,0.6-0.5,0.8c-0.2,0.3-0.3,0.5-0.5,0.8
	c-0.2,0.3-0.3,0.6-0.4,0.9c-0.1,0.3-0.3,0.6-0.4,0.8c-0.1,0.3-0.2,0.6-0.3,0.9C4.2,93.7,4.1,94,4,94.3c-0.1,0.3-0.2,0.6-0.2,0.9
	c-0.1,0.3-0.2,0.6-0.2,1c-0.1,0.3-0.1,0.7-0.2,1c0,0.3-0.1,0.6-0.1,0.9c-0.1,0.6-0.1,1.3-0.1,1.9v0c0,0.6,0,1.2,0.1,1.9
	c0,0,0,0,0,0.1c0,0.3,0.1,0.6,0.1,0.9c0,0.3,0.1,0.6,0.1,0.9c0,0,0,0.1,0,0.1c0.1,0.3,0.2,0.6,0.2,1c0.1,0.3,0.1,0.6,0.2,0.9
	c0.1,0.3,0.2,0.6,0.3,0.9c0.1,0.3,0.2,0.6,0.3,0.9c0.1,0.3,0.3,0.6,0.4,0.8c0.1,0.3,0.3,0.6,0.4,0.9c0.1,0.3,0.3,0.5,0.5,0.8
	c0.1,0.3,0.3,0.5,0.4,0.8c0,0,0,0.1,0.1,0.1c0.2,0.3,0.4,0.6,0.6,0.8c0.2,0.2,0.3,0.5,0.5,0.7c0.4,0.5,0.8,1,1.3,1.4l68.5,68.5
	c7.6,7.6,19.9,7.6,27.5,0s7.6-19.9,0-27.5l-35.2-35.2h106.9c10.8,0,19.5-8.7,19.5-19.5v0C196.1,89.2,187.3,80.5,176.6,80.5z"/>
</svg>
