<?xml version="1.0" encoding="utf-8"?>
<!-- Generator: Adobe Illustrator 25.0.0, SVG Export Plug-In . SVG Version: 6.00 Build 0)  -->
<svg version="1.1" id="Camada_1" xmlns="http://www.w3.org/2000/svg" xmlns:xlink="http://www.w3.org/1999/xlink" x="0px" y="0px"
	 viewBox="0 0 200 200" style="enable-background:new 0 0 200 200;" xml:space="preserve">
<style type="text/css">
	.st0{fill:#39A26C;}
</style>
<g>
	<g id="XMLID_1_">
		<path id="XMLID_3_" class="st0" d="M146.9,114.6c-0.4-0.2-14.6-7.2-17.2-8.1c-1-0.4-2.1-0.7-3.3-0.7c-1.9,0-3.5,1-4.8,2.8
			c-1.4,2.1-5.7,7.2-7.1,8.7c-0.2,0.2-0.4,0.4-0.6,0.4c-0.1,0-2.3-0.9-3-1.2C95.6,109.9,84,93.9,82.4,91.2c-0.2-0.4-0.2-0.6-0.2-0.6
			c0.1-0.2,0.6-0.7,0.8-1c0.8-0.8,1.6-1.8,2.4-2.8c0.4-0.5,0.8-0.9,1.2-1.4c1.2-1.4,1.7-2.4,2.3-3.7l0.3-0.6c1.5-3,0.2-5.5-0.2-6.3
			c-0.3-0.7-6.4-15.2-7-16.7c-1.5-3.7-3.6-5.4-6.4-5.4c-0.3,0,0,0-1.1,0c-1.3,0.1-8.6,1-11.9,3.1c-3.4,2.2-9.2,9-9.2,21.1
			c0,10.9,6.9,21.2,9.9,25.1c0.1,0.1,0.2,0.3,0.4,0.6c11.4,16.6,25.5,28.9,39.9,34.6c13.8,5.5,20.4,6.2,24.1,6.2l0,0
			c1.6,0,2.8-0.1,3.9-0.2l0.7-0.1c4.8-0.4,15.3-5.9,17.6-12.5c1.9-5.2,2.4-10.9,1.1-13C150.3,116.2,148.8,115.5,146.9,114.6z"/>
		<path id="XMLID_2_" class="st0" d="M101.7,2.2C48.7,2.2,5.6,45,5.6,97.5c0,17,4.6,33.7,13.2,48.2L2.3,194.5
			c-0.3,0.9-0.1,1.9,0.6,2.6c0.5,0.5,1.1,0.8,1.8,0.8c0.3,0,0.5,0,0.8-0.1l50.8-16.1c13.9,7.4,29.6,11.3,45.5,11.3
			c53,0,96.1-42.8,96.1-95.4C197.8,45,154.7,2.2,101.7,2.2z M101.7,173c-15,0-29.4-4.3-41.9-12.5c-0.4-0.3-0.9-0.4-1.4-0.4
			c-0.3,0-0.5,0-0.8,0.1l-25.4,8.1l8.2-24.2c0.3-0.8,0.1-1.6-0.4-2.3c-9.5-13-14.5-28.3-14.5-44.3c0-41.6,34.1-75.5,76.1-75.5
			s76.1,33.9,76.1,75.5C177.8,139.2,143.7,173,101.7,173z"/>
	</g>
</g>
</svg>
