<svg xmlns="http://www.w3.org/2000/svg" viewBox="0 0 500 500"><defs><style>.cls-1{fill:#ee632e;}.cls-2{fill:#ed7c2f;}.cls-3{fill:#ea902f;}</style></defs><g id="Camada_3" data-name="Camada 3"><path class="cls-1" d="M313.11,262.56C377.58,291.51,426.81,357,392.87,441c-33.15,82.15-119.55,107.52-224.32,68.9C95.34,483,47.26,439.21,17.94,387.14l85.79-64.28c17.46,38.54,42.07,72.28,88.05,90,43.31,16.75,79.19,5.48,91.76-23.17,10-22.88,4.94-46.65-21-67.76-20.69-17-47.3-26-74.44-34.18L184.61,225,327.32,167,165,101.81,201.75,10.2,496.63,128.64l-28.22,70.24L313.12,262.57Z"/><path class="cls-2" d="M481.35,166.67H326.45l.87.35L184.61,225l3.48,62.81c27.14,8.21,53.75,17.14,74.44,34.18a91,91,0,0,1,11.78,11.37H391c-15.9-31.55-44.9-55.94-77.9-70.76l155.28-63.69Z"/><path class="cls-2" d="M108.73,333.33c-1.73-3.44-3.4-6.94-5-10.47l-14,10.47Z"/><path class="cls-3" d="M283.54,389.72c-12.57,28.65-48.45,39.92-91.76,23.17-41.76-16.12-65.89-45.44-83-79.56h-19L17.94,387.14c26,46.1,66.64,85.67,126.42,112.86H348.85c18.94-14.28,33.94-34,44-59,16.56-41,13.31-77.63-1.84-107.71H274.31C289.79,351.41,291.81,370.87,283.54,389.72Z"/></g></svg>