<?xml version="1.0" encoding="utf-8"?>
<!-- Generator: Adobe Illustrator 25.0.0, SVG Export Plug-In . SVG Version: 6.00 Build 0)  -->
<svg version="1.1" id="Camada_1" xmlns="http://www.w3.org/2000/svg" xmlns:xlink="http://www.w3.org/1999/xlink" x="0px" y="0px"
	 viewBox="0 0 500 500" style="enable-background:new 0 0 500 500;" xml:space="preserve">
<style type="text/css">
	.st0{fill:#EE632E;}
	.st1{fill:#ED7C2F;}
	.st2{fill:#EA902F;}
</style>
<g id="Camada_6">
	<path class="st0" d="M315.3,571.5C186.4,608.8,98.6,548.6,72.8,460.8c-25-84.9,0-149.3,67.4-374.2l132.9-38.4l-71.4,221.9
		c14.9-18.8,41.3-30.6,70.1-37.1c73.1-16.3,156.5,20.7,184.3,116.9C483.6,444.8,422.7,540.4,315.3,571.5L315.3,571.5z M285.1,476.6
		c38.6-11.1,60.9-51.4,49.8-90s-51.4-60.9-90-49.8s-60.9,51.4-49.8,90c0,0,0,0,0,0.1c11,38.5,51.1,60.8,89.7,49.8
		C284.9,476.7,285,476.7,285.1,476.6z"/>
	<path class="st1" d="M104.4,205C82,280,68.5,330.1,64.6,371.6h136.4c19-35.3,63-48.6,98.3-29.7c12.6,6.8,22.9,17.1,29.7,29.7h132.1
		c-1.1-7.6-2.7-15.1-4.9-22.4C428.4,253,345,216,271.9,232.3c-28.8,6.5-55.3,18.3-70.1,37.1l20.7-64.4H104.4z"/>
	<path class="st2" d="M334.7,386.6c11.1,38.5-11.1,78.8-49.7,89.9c-38.5,11.1-78.8-11.1-89.9-49.7c-5.2-18.2-3.2-37.8,5.8-54.5H64.6
		c-3,32-0.4,59,8.3,88.5c8.9,30.3,25.2,57.3,48.1,78.2h263c56.4-39.7,86.6-102.2,77.2-166.7H328.9
		C331.3,376.9,333.3,381.6,334.7,386.6z"/>
</g>
</svg>
