<?xml version="1.0" encoding="utf-8"?>
<!-- Generator: Adobe Illustrator 25.0.0, SVG Export Plug-In . SVG Version: 6.00 Build 0)  -->
<svg version="1.1" id="Camada_1" xmlns="http://www.w3.org/2000/svg" xmlns:xlink="http://www.w3.org/1999/xlink" x="0px" y="0px"
	 viewBox="0 0 500 500" style="enable-background:new 0 0 500 500;" xml:space="preserve">
<style type="text/css">
	.st0{fill:#EE632E;}
	.st1{fill:#ED7C2F;}
	.st2{fill:#EA902F;}
</style>
<g>
	<path class="st0" d="M351,255.5c37.4,2.1,94.9,27.5,114.8,89.1c22.5,69.6,2.3,160.9-144.2,208.3c-146.5,47.5-216.5-14.6-239-84.2
		c-19.9-61.6,11.7-115.9,40.8-139.5c-22.9-5-69.2-27.1-85.1-76C14.7,180.7,52.2,109.7,166,72.8c113.8-36.9,185.8-1.3,209.3,71.2
		C391.1,193,366.6,238,351,255.5L351,255.5z M167,227.7c7.5,23.1,32.9,33.6,57.4,25.6c24.5-8,39-31.3,31.5-54.4
		c-7.9-24.5-33.1-34.2-57.6-26.2C173.8,180.6,159.1,203.2,167,227.7z M329.1,384.8c-9.5-29.4-40.9-42-72.3-31.8
		c-31.5,10.2-49.5,38.8-40,68.2c9,27.8,41.4,42,72.4,32C320.2,443.1,338.1,412.6,329.1,384.8z"/>
</g>
<path class="st1" d="M365.6,233.9H250.8c-5.9,8.7-15,15.7-26.4,19.4c-22.2,7.2-45.1-0.7-54.8-19.4H33.4c1.1,6.4,2.7,12.9,4.8,19.3
	c15.9,48.9,62.1,71,85.1,76c-17.6,14.3-36.2,39.9-43.6,71.6h134.8c2-21.5,18.2-40.2,42.3-48c31.5-10.2,62.8,2.4,72.3,31.8
	c1.7,5.3,2.5,10.8,2.3,16.2h141.9c1.2-19.4-1.8-38.6-7.5-56.3c-19.9-61.6-77.4-87-114.8-89.1l0,0
	C355.5,250.5,360.8,243.1,365.6,233.9z"/>
<path class="st2" d="M331.4,400.9c-0.7,22.6-17.1,44.1-42.2,52.2c-31,10-63.4-4.2-72.4-32c-2.2-6.9-2.9-13.7-2.3-20.2H79.7
	c-4.8,20.6-5,43.6,2.9,67.9c7.1,21.8,18.8,42.9,36.2,60.1h260.4c65.9-35.2,91.4-82.5,94.2-128H331.4z"/>
</svg>
