<svg xmlns="http://www.w3.org/2000/svg" viewBox="0 0 500 500"><defs><style>.cls-1{fill:#ee632e;}.cls-2{fill:#ed7c2f;}.cls-3{fill:#ea902f;}</style></defs><g id="Camada_5" data-name="Camada 5"><path class="cls-1" d="M310.49,225.72c96.62,25.22,140,104.21,118,190.49-22.09,86.5-105,152.52-245.21,116.71-67.9-17.34-122.06-51-165.85-104.39l80.82-81.94c27.14,37.26,56.61,69,103.66,81.52,50,13.25,84.37-10,92.66-42.5,9.1-35.63-11.31-64.66-49.73-74.55-41.65-10.73-67.92,8.13-67.92,8.13l-76.25-73.41,104-238.36L478.4,77.36,452.13,180.22,280.72,136.44l-36.24,84.12c18.82-2.61,40.3-1.54,66,5.17Z"/><path class="cls-2" d="M310.49,225.72h0c-25.71-6.71-47.19-7.78-66-5.17l23.22-53.89H135.14l-34.51,79.11,76.25,73.41s26.27-18.86,67.92-8.13c16.46,4.24,29.6,12,38.54,22.27H428.92C415.24,282.85,374.58,242.45,310.49,225.72Z"/><polygon class="cls-2" points="399.07 166.67 452.13 180.22 455.59 166.67 399.07 166.67"/><path class="cls-3" d="M294.53,385.61c-8.29,32.47-42.7,55.75-92.66,42.5-47.05-12.5-76.52-44.26-103.66-81.52L17.39,428.53c24.4,29.78,52,53.39,83.45,71.47H378.77c24.84-22.32,41.47-51.63,49.68-83.79,7.42-29,7.41-57.26.47-82.88H283.34C295.28,347,299.73,365.24,294.53,385.61Z"/></g></svg>