<?xml version="1.0" encoding="utf-8"?>
<!-- Generator: Adobe Illustrator 25.0.0, SVG Export Plug-In . SVG Version: 6.00 Build 0)  -->
<svg version="1.1" id="Camada_1" xmlns="http://www.w3.org/2000/svg" xmlns:xlink="http://www.w3.org/1999/xlink" x="0px" y="0px"
	 viewBox="0 0 500 500" style="enable-background:new 0 0 500 500;" xml:space="preserve">
<style type="text/css">
	.st0{fill:#EE632E;}
	.st1{fill:#ED7C2F;}
	.st2{fill:#EA902F;}
</style>
<g id="Camada_3">
	<path class="st0" d="M313.1,306.6c64.5,29,113.7,94.4,79.8,178.4c-33.1,82.2-119.5,107.5-224.3,68.9
		C95.3,527,47.3,483.2,17.9,431.1l85.8-64.3c17.5,38.5,42.1,72.3,88,90c43.3,16.8,79.2,5.5,91.8-23.2c10-22.9,4.9-46.6-21-67.8
		c-20.7-17-47.3-26-74.4-34.2l-3.5-62.8l142.7-58L165,145.8l36.8-91.6l294.9,118.4l-28.2,70.2L313.1,306.6L313.1,306.6z"/>
	<path class="st1" d="M481.4,210.7H326.5l0.9,0.4l-142.7,58l3.5,62.8c27.1,8.2,53.8,17.1,74.4,34.2c4.3,3.4,8.2,7.2,11.8,11.4H391
		c-15.9-31.5-44.9-55.9-77.9-70.8l155.3-63.7L481.4,210.7z"/>
	<path class="st1" d="M108.7,377.3c-1.7-3.4-3.4-6.9-5-10.5l-14,10.5H108.7z"/>
	<path class="st2" d="M283.5,433.7c-12.6,28.6-48.4,39.9-91.8,23.2c-41.8-16.1-65.9-45.4-83-79.6h-19l-71.8,53.8
		c26,46.1,66.6,85.7,126.4,112.9h204.5c18.9-14.3,33.9-34,44-59c16.6-41,13.3-77.6-1.8-107.7H274.3
		C289.8,395.4,291.8,414.9,283.5,433.7z"/>
</g>
</svg>
