<?xml version="1.0" encoding="utf-8"?>
<!-- Generator: Adobe Illustrator 25.0.0, SVG Export Plug-In . SVG Version: 6.00 Build 0)  -->
<svg version="1.1" id="Camada_1" xmlns="http://www.w3.org/2000/svg" xmlns:xlink="http://www.w3.org/1999/xlink" x="0px" y="0px"
	 viewBox="0 0 500 500" style="enable-background:new 0 0 500 500;" xml:space="preserve">
<style type="text/css">
	.st0{fill:#EE632E;}
	.st1{fill:#ED7C2F;}
	.st2{fill:#EA902F;}
</style>
<g id="Camada_2_1_">
	<path class="st0" d="M459,430.8l29.5,102L117.7,640l-23.8-82.4l138.3-230.8c20.7-34,31.6-61.6,22.9-91.7
		c-9.5-32.9-41.1-50.5-77.3-40.1c-38.1,11-54.7,46.9-63.6,79.6L7.9,245.2c12-50.2,45.4-124.7,144.7-153.3
		c102.7-29.5,197.6,5.4,225,99.9c17.8,61.5,1.6,113.2-39.2,178.6L269,485.7L459,430.8z"/>
	<path class="st1" d="M255.1,235.2c8.7,30.1-2.1,57.7-22.9,91.7l-41.6,69.5h132.2l15.6-25.9c32.2-51.6,49-94.7,46-140.7H253.2
		C253.9,231.5,254.5,233.3,255.1,235.2z"/>
	<path class="st1" d="M133,229.7H12.1c-1.6,5.4-3,10.6-4.2,15.5l106.3,29.5C118.3,259.4,124.1,243.5,133,229.7z"/>
	<polygon class="st2" points="190.5,396.3 93.9,557.6 95.4,563 383.8,563 488.5,532.7 459,430.8 269,485.7 322.7,396.3 	"/>
</g>
</svg>
