<?xml version="1.0" encoding="utf-8"?>
<!-- Generator: Adobe Illustrator 25.0.0, SVG Export Plug-In . SVG Version: 6.00 Build 0)  -->
<svg version="1.1" id="Camada_1" xmlns="http://www.w3.org/2000/svg" xmlns:xlink="http://www.w3.org/1999/xlink" x="0px" y="0px"
	 viewBox="0 0 500 500" style="enable-background:new 0 0 500 500;" xml:space="preserve">
<style type="text/css">
	.st0{fill:#EE632E;}
	.st1{fill:#ED7C2F;}
	.st2{fill:#EA902F;}
</style>
<g id="Camada_4">
	<path class="st0" d="M488.2,461.6l-55.8,16.1l25,86.4l-128.5,37.2l-25-86.4L74.3,581.3l-59.9-82L96.2,116l136.2-39.4L152.1,442
		l120.6-34.9l-30-103.6l128.5-37.1l30,103.6l55.8-16.2L488.2,461.6z"/>
	<polygon class="st1" points="457,353.8 401.2,369.9 371.3,266.3 242.8,303.4 268.2,391.3 467.9,391.3 	"/>
	<polygon class="st1" points="37.4,391.3 163.2,391.3 199.8,224.7 73,224.7 	"/>
	<polygon class="st2" points="272.7,407.1 152.1,442 163.2,391.3 37.4,391.3 14.4,499.3 57.3,558 154.8,558 303.9,514.9 316.4,558 
		455.6,558 432.4,477.7 488.2,461.6 467.9,391.3 268.2,391.3 	"/>
</g>
</svg>
