<?xml version="1.0" encoding="utf-8"?>
<!-- Generator: Adobe Illustrator 25.0.0, SVG Export Plug-In . SVG Version: 6.00 Build 0)  -->
<svg version="1.1" id="Camada_1" xmlns="http://www.w3.org/2000/svg" xmlns:xlink="http://www.w3.org/1999/xlink" x="0px" y="0px"
	 viewBox="0 0 500 500" style="enable-background:new 0 0 500 500;" xml:space="preserve">
<style type="text/css">
	.st0{fill:#EE632E;}
	.st1{fill:#ED7C2F;}
	.st2{fill:#EA902F;}
</style>
<g id="Camada_5">
	<path class="st0" d="M310.5,277.7c96.6,25.2,140,104.2,118,190.5c-22.1,86.5-105,152.5-245.2,116.7
		c-67.9-17.3-122.1-51-165.9-104.4l80.8-81.9c27.1,37.3,56.6,69,103.7,81.5c50,13.3,84.4-10,92.7-42.5c9.1-35.6-11.3-64.7-49.7-74.6
		c-41.7-10.7-67.9,8.1-67.9,8.1l-76.3-73.4l104-238.4l273.7,69.9l-26.3,102.9l-171.4-43.8l-36.2,84.1
		C263.3,270,284.8,271,310.5,277.7L310.5,277.7z"/>
	<path class="st1" d="M310.5,277.7L310.5,277.7c-25.7-6.7-47.2-7.8-66-5.2l23.2-53.9H135.1l-34.5,79.1l76.3,73.4
		c0,0,26.3-18.9,67.9-8.1c16.5,4.2,29.6,12,38.5,22.3h145.6C415.2,334.9,374.6,294.5,310.5,277.7z"/>
	<polygon class="st1" points="399.1,218.7 452.1,232.2 455.6,218.7 	"/>
	<path class="st2" d="M294.5,437.6c-8.3,32.5-42.7,55.8-92.7,42.5c-47.1-12.5-76.5-44.3-103.7-81.5l-80.8,81.9
		c24.4,29.8,52,53.4,83.4,71.5h277.9c24.8-22.3,41.5-51.6,49.7-83.8c7.4-29,7.4-57.3,0.5-82.9H283.3
		C295.3,399,299.7,417.2,294.5,437.6z"/>
</g>
</svg>
