<svg xmlns="http://www.w3.org/2000/svg" viewBox="0 0 500 500"><defs><style>.cls-1{fill:#ee632e;}.cls-2{fill:#ed7c2f;}.cls-3{fill:#ea902f;}</style></defs><g id="Camada_4" data-name="Camada 4"><path class="cls-1" d="M488.17,403.61l-55.78,16.13,25,86.42-128.5,37.16-25-86.42L74.34,523.28l-59.93-82L96.16,58,232.37,18.58,152.12,384l120.61-34.88-30-103.65,128.5-37.15,30,103.64L457,295.79Z"/><polygon class="cls-2" points="457 295.79 401.22 311.93 371.25 208.28 242.75 245.43 268.17 333.33 467.86 333.33 457 295.79"/><polygon class="cls-2" points="37.44 333.33 163.24 333.33 199.84 166.67 72.98 166.67 37.44 333.33"/><polygon class="cls-3" points="272.73 349.08 152.12 383.96 163.24 333.33 37.44 333.33 14.41 441.29 57.32 500 154.83 500 303.89 456.9 316.36 500 455.6 500 432.39 419.74 488.17 403.61 467.86 333.33 268.17 333.33 272.73 349.08"/></g></svg>