<?xml version="1.0" encoding="utf-8"?>
<!-- Generator: Adobe Illustrator 25.0.0, SVG Export Plug-In . SVG Version: 6.00 Build 0)  -->
<svg version="1.1" id="Camada_1" xmlns="http://www.w3.org/2000/svg" xmlns:xlink="http://www.w3.org/1999/xlink" x="0px" y="0px"
	 viewBox="0 0 200 136.5" style="enable-background:new 0 0 200 136.5;" xml:space="preserve">
<style type="text/css">
	.st0{fill:#64666D;}
	.st1{fill:#ED7C2F;}
	.st2{fill:#EE632E;}
	.st3{fill:#EA902F;}
</style>
<path class="st0" d="M42.7,48.2L29.5,18.4c-0.9-2-2.8-3.3-5-3.3h-17C3.4,15.1,0,11.8,0,7.6v0C0,3.4,3.4,0,7.6,0l22.6,0
	c4.8,0,9.1,2.8,11,7.2l15.4,34.9L42.7,48.2z"/>
<g>
	<g>
		<path class="st1" d="M120,44.7c-23.6,0-39.9,8-50.8,16.8c-3.9,3.2-4.2,9-0.7,12.6l0,0c3.1,3.1,7.9,3.3,11.3,0.6
			c8.4-6.8,21.3-13.1,40.1-13.1c19.5,0,33,6.7,41.8,13.8c3.3,2.7,8.2,2.4,11.2-0.7l0,0c3.5-3.5,3.3-9.3-0.6-12.5
			C161.2,53.2,144.2,44.7,120,44.7z"/>
	</g>
</g>
<path class="st2" d="M147.8,100c3.6-3.6,3.2-9.4-0.7-12.6c-5.8-4.6-14.4-8.9-26.6-8.9c-11.8,0-20.1,4-25.7,8.5
	c-3.9,3.1-4.3,9-0.7,12.6l0,0c3,3,7.8,3.3,11.2,0.7c3.2-2.5,8.1-4.8,15.2-4.8c7.4,0,12.6,2.7,16,5.4
	C139.9,103.4,144.7,103.1,147.8,100L147.8,100z"/>
<path class="st3" d="M196.7,37.7c-17.5-13-42.8-26.3-75.8-26.7h-0.2c-33,0.3-58.3,13.7-75.8,26.7c-4.1,3-4.5,8.9-0.9,12.5
	c2.9,2.9,7.6,3.2,10.9,0.7c17.3-13.3,42.3-22.7,65.9-23c23.6,0.3,48.6,9.7,65.9,23c3.3,2.5,7.9,2.2,10.9-0.7
	C201.1,46.6,200.7,40.7,196.7,37.7z"/>
<circle class="st0" cx="160.7" cy="121.7" r="14.8"/>
<circle class="st0" cx="84.8" cy="121.7" r="14.8"/>
</svg>
