<?xml version="1.0" encoding="utf-8"?>
<!-- Generator: Adobe Illustrator 25.0.0, SVG Export Plug-In . SVG Version: 6.00 Build 0)  -->
<svg version="1.1" id="Camada_1" xmlns="http://www.w3.org/2000/svg" xmlns:xlink="http://www.w3.org/1999/xlink" x="0px" y="0px"
	 viewBox="0 0 292.2 63.9" style="enable-background:new 0 0 292.2 63.9;" xml:space="preserve">
<style type="text/css">
	.st0{fill:#FFFFFF;}
	.st1{fill:#EE632E;}
</style>
<path class="st0" d="M289.3,8.9c-0.7-1.3-1.6-2.4-2.8-3.4c-0.3-0.2-0.6-0.5-0.9-0.7c-1.8-1.2-4-1.9-6.4-1.9h0h-74.8H102.9H25.1
	L2.9,61h77.8h101.6h97c6.3,0,11.4-5.1,11.4-11.4V14.3C290.7,12.3,290.2,10.5,289.3,8.9z"/>
<g>
	<g>
		<path class="st1" d="M76.4,17.4L64.1,46.5h-8.2L43.7,17.4H54l6,17.5l6-17.5C66,17.4,76.4,17.4,76.4,17.4z"/>
	</g>
	<g>
		<path class="st1" d="M90.9,42.5H81l-1.2,4H69.7l11.4-29.1h9.8l11.4,29.1H92.2L90.9,42.5z M88.9,36L86,26.6L83.1,36H88.9z"/>
	</g>
	<g>
		<path class="st1" d="M128.3,38.6v7.8h-21.4v-29h9.4v21.2H128.3z"/>
	</g>
	<g>
		<path class="st1" d="M141.9,46.5h-9.4V17.4h9.4V46.5z"/>
	</g>
	<g>
		<path class="st1" d="M174.9,31.9c0,8.6-6.4,14.5-15.7,14.5h-12.3v-29h12.3C168.5,17.4,174.9,23.4,174.9,31.9z M158.5,38.5
			c3.2,0,6.7-1.8,6.7-6.6c0-4.7-3.5-6.6-6.7-6.6h-2.2v13.2H158.5L158.5,38.5z"/>
	</g>
	<g>
		<path class="st1" d="M195.9,42.5H186l-1.2,4h-10.2L186,17.4h9.8l11.4,29.1H197L195.9,42.5z M193.9,36l-2.9-9.5l-3,9.5H193.9z"/>
	</g>
	<g>
		<path class="st1" d="M238.7,31.9c0,8.6-6.4,14.5-15.7,14.5h-12.3v-29H223C232.4,17.4,238.7,23.4,238.7,31.9z M222.4,38.5
			c3.2,0,6.7-1.8,6.7-6.6c0-4.7-3.5-6.6-6.7-6.6h-2.2v13.2H222.4L222.4,38.5z"/>
	</g>
	<g>
		<path class="st1" d="M252,24.9v4h13.2V35H252v4h13.2v7.5h-22.7V17.4h22.7v7.5H252z"/>
	</g>
</g>
</svg>
