<?xml version="1.0" encoding="utf-8"?>
<!-- Generator: Adobe Illustrator 25.0.0, SVG Export Plug-In . SVG Version: 6.00 Build 0)  -->
<svg version="1.1" id="Camada_1" xmlns="http://www.w3.org/2000/svg" xmlns:xlink="http://www.w3.org/1999/xlink" x="0px" y="0px"
	 viewBox="0 0 400 63.9" style="enable-background:new 0 0 400 63.9;" xml:space="preserve">
<style type="text/css">
	.st0{fill:#EE632E;}
	.st1{fill:#ED7C2F;}
	.st2{fill:#EA902F;}
	.st3{fill:#FFFFFF;}
</style>
<path class="st0" d="M279.5,61.2H2.7L24.9,3h254.6c6.3,0,11.4,5.1,11.4,11.4v35.3C290.9,56,285.8,61.2,279.5,61.2z"/>
<path class="st1" d="M397.4,49.7V14.4c0-6.3-6.7-11.4-15-11.4H149.9l-29.3,58.2h261.6C390.6,61.2,397.4,56,397.4,49.7z"/>
<path class="st2" d="M397.4,49.7V14.4c0-6.3-5.1-11.4-11.4-11.4H269.7l-22.2,58.2h138.4C392.2,61.2,397.4,56,397.4,49.7z"/>
<g>
	<path class="st3" d="M39.2,32.1c0-8.1,6-14.7,15.4-14.7c3.7,0,6.9,1.1,9.4,2.8l-4.8,7c-1.1-1.2-2.7-1.9-4.5-1.9
		c-4,0-6.4,3.3-6.4,6.8c0,3.4,2.4,6.7,6.4,6.7c1.8,0,3.4-0.8,4.5-1.9l4.8,7c-2.5,1.8-5.7,2.9-9.4,2.9C45.2,46.8,39.2,40.2,39.2,32.1
		z"/>
</g>
<g>
	<path class="st3" d="M94.5,37.7c1.5,2.5,2.4,6.2,4.7,9.1H88c-0.7-1.5-1.8-5.8-3-7.9c-1-1.6-2.4-2.8-5.9-2.9v10.8h-9.6V17.4h16
		c4.7,0,11.3,1.8,11.3,8.8c0,4.3-3.3,6.8-7.3,8C91.7,35,93.5,36.1,94.5,37.7L94.5,37.7z M79.1,24.3v6.1h4.1c2.6,0,3.9-1.2,3.9-3.1
		c0-1.8-1.2-3-3.7-3H79.1z"/>
</g>
<g>
	<path class="st3" d="M164.9,17.4v29.4h-8.7l-10.5-14.9v14.9h-9.1V17.4h8.7l10.5,15.1V17.4H164.9z"/>
</g>
<g>
	<path class="st3" d="M170.3,32.1c0-8.1,6.2-14.6,15.8-14.6c9.6,0,15.8,6.5,15.8,14.6c0,8.1-6.2,14.7-15.8,14.7
		C176.5,46.8,170.3,40.2,170.3,32.1z M192.7,32.1c0-3.4-2.4-6.7-6.6-6.7c-4.1,0-6.6,3.3-6.6,6.7c0,3.4,2.4,6.8,6.6,6.8
		C190.2,38.9,192.7,35.5,192.7,32.1z"/>
</g>
<g>
	<path class="st3" d="M100.5,32.1c0-8.1,6.2-14.6,15.8-14.6c9.6,0,15.8,6.5,15.8,14.6c0,8.1-6.2,14.7-15.8,14.7
		C106.6,46.8,100.5,40.2,100.5,32.1z M122.8,32.1c0-3.4-2.4-6.7-6.6-6.7c-4.1,0-6.6,3.3-6.6,6.7c0,3.4,2.4,6.8,6.6,6.8
		C120.3,38.9,122.8,35.5,122.8,32.1z"/>
</g>
<g>
	<path class="st3" d="M234.7,29.6v14.1c0,0-4.4,3.1-12.6,3.1c-10.5,0-15.5-7.3-15.5-14.6c0-7.7,5.3-14.9,15.8-14.9
		c4.5,0,7.4,0.9,10.4,2.7l-4,6.9c-0.9-0.6-3.2-1.8-5.9-1.8c-3,0-7,1.8-7,7.1c0,4.5,2.8,7,6.6,7.1c1,0,2.6-0.1,3.9-0.6v-3.3h-5.1
		v-5.8H234.7z"/>
</g>
<g>
	<path class="st3" d="M265.5,37.7c1.5,2.5,2.4,6.2,4.7,9.1H259c-0.7-1.5-1.8-5.8-3-7.9c-1-1.6-2.4-2.8-5.9-2.9v10.8h-9.6V17.4h16
		c4.7,0,11.3,1.8,11.3,8.8c0,4.3-3.3,6.8-7.3,8C262.7,35,264.5,36.1,265.5,37.7L265.5,37.7z M250.1,24.3v6.1h4.1
		c2.6,0,3.9-1.2,3.9-3.1c0-1.8-1.2-3-3.7-3H250.1z"/>
</g>
<g>
	<path class="st3" d="M293.4,42.8h-10l-1.3,4h-10.3l11.6-29.4h9.9l11.6,29.4h-10.3L293.4,42.8z M291.4,36.3l-3-9.6l-3,9.6H291.4z"/>
</g>
<g>
	<path class="st3" d="M342.2,17.4v29.4h-9.1V35.6l-5.5,11.2h-4.9l-5.5-11.2v11.2h-9.1V17.4h8.4l8.7,17.6l8.7-17.6H342.2z"/>
</g>
<g>
	<path class="st3" d="M366.6,42.8h-10l-1.3,4h-10.3l11.6-29.4h9.9l11.6,29.4h-10.3L366.6,42.8z M364.6,36.3l-3-9.6l-3,9.6H364.6z"/>
</g>
</svg>
