<?xml version="1.0" encoding="utf-8"?>
<!-- Generator: Adobe Illustrator 25.0.0, SVG Export Plug-In . SVG Version: 6.00 Build 0)  -->
<svg version="1.1" id="Camada_1" xmlns="http://www.w3.org/2000/svg" xmlns:xlink="http://www.w3.org/1999/xlink" x="0px" y="0px"
	 viewBox="0 0 292.2 63.9" style="enable-background:new 0 0 292.2 63.9;" xml:space="preserve">
<style type="text/css">
	.st0{fill:#EE632E;}
	.st1{fill:#ED7C2F;}
	.st2{fill:#EA902F;}
	.st3{fill:#FFFFFF;}
</style>
<path class="st0" d="M279.3,61H2.9L25.1,2.9h254.2c6.3,0,11.4,5.1,11.4,11.4v35.3C290.7,55.9,285.6,61,279.3,61z"/>
<path class="st1" d="M290.7,49.6V14.3c0-6.3-5.1-11.4-11.4-11.4H102.9L80.7,61h198.6C285.6,61,290.7,55.9,290.7,49.6z"/>
<path class="st2" d="M290.7,49.6V14.3c0-6.3-5.1-11.4-11.4-11.4h-74.8L182.3,61h97C285.6,61,290.7,55.9,290.7,49.6z"/>
<g>
	<g>
		<path class="st3" d="M76.4,17.4L64.1,46.5h-8.2L43.7,17.4H54l6,17.5l6-17.5H76.4z"/>
	</g>
	<g>
		<path class="st3" d="M90.9,42.5h-9.9l-1.2,4H69.7l11.4-29.1h9.8l11.4,29.1H92.2L90.9,42.5z M88.9,36L86,26.6L83.1,36H88.9z"/>
	</g>
	<g>
		<path class="st3" d="M128.3,38.6v7.8h-21.4V17.4h9.4v21.2H128.3z"/>
	</g>
	<g>
		<path class="st3" d="M141.9,46.5h-9.4V17.4h9.4V46.5z"/>
	</g>
	<g>
		<path class="st3" d="M174.9,31.9c0,8.6-6.4,14.5-15.7,14.5h-12.3V17.4h12.3C168.5,17.4,174.9,23.4,174.9,31.9z M158.5,38.5
			c3.2,0,6.7-1.8,6.7-6.6c0-4.7-3.5-6.6-6.7-6.6h-2.2v13.2L158.5,38.5L158.5,38.5z"/>
	</g>
	<g>
		<path class="st3" d="M195.9,42.5H186l-1.2,4h-10.2l11.4-29.1h9.8l11.4,29.1h-10.2L195.9,42.5z M193.9,36l-2.9-9.5L188,36H193.9z"
			/>
	</g>
	<g>
		<path class="st3" d="M238.7,31.9c0,8.6-6.4,14.5-15.7,14.5h-12.3V17.4H223C232.4,17.4,238.7,23.4,238.7,31.9z M222.4,38.5
			c3.2,0,6.7-1.8,6.7-6.6c0-4.7-3.5-6.6-6.7-6.6h-2.2v13.2L222.4,38.5L222.4,38.5z"/>
	</g>
	<g>
		<path class="st3" d="M252,24.9v4h13.2V35H252v4h13.2v7.5h-22.7V17.4h22.7v7.5H252z"/>
	</g>
</g>
</svg>
