<?xml version="1.0" encoding="utf-8"?>
<!-- Generator: Adobe Illustrator 25.0.0, SVG Export Plug-In . SVG Version: 6.00 Build 0)  -->
<svg version="1.1" id="Camada_1" xmlns="http://www.w3.org/2000/svg" xmlns:xlink="http://www.w3.org/1999/xlink" x="0px" y="0px"
	 viewBox="0 0 298.9 103.6" style="enable-background:new 0 0 298.9 103.6;" xml:space="preserve">
<style type="text/css">
	.st0{fill:#EE632E;}
	.st1{fill:#ED7C2F;}
	.st2{fill:#EA902F;}
	.st3{fill:#FFFFFF;}
</style>
<path class="st0" d="M282.5,97.2H6.1l22.2-58.1h254.2c6.3,0,11.4,5.1,11.4,11.4v35.3C293.9,92.1,288.8,97.2,282.5,97.2z"/>
<path class="st1" d="M293.9,85.8V50.5c0-6.3-5.1-11.4-11.4-11.4H106.1L83.9,97.2h198.6C288.8,97.2,293.9,92.1,293.9,85.8z"/>
<path class="st2" d="M293.9,85.8V50.5c0-6.3-5.1-11.4-11.4-11.4h-74.8l-22.2,58.1h97C288.8,97.2,293.9,92.1,293.9,85.8z"/>
<g>
	<g>
		<path class="st3" d="M79.5,53.6L67.3,82.7h-8.2L46.9,53.6h10.3l6,17.5l6-17.5H79.5z"/>
	</g>
	<g>
		<path class="st3" d="M94.1,78.7h-9.9l-1.2,4H72.8l11.4-29.1h9.8l11.4,29.1H95.3L94.1,78.7z M92.1,72.3l-2.9-9.5l-2.9,9.5H92.1z"/>
	</g>
	<g>
		<path class="st3" d="M131.5,74.8v7.8H110V53.6h9.4v21.2H131.5z"/>
	</g>
	<g>
		<path class="st3" d="M145,82.7h-9.4V53.6h9.4V82.7z"/>
	</g>
	<g>
		<path class="st3" d="M178,68.2c0,8.6-6.4,14.5-15.7,14.5H150V53.6h12.3C171.7,53.6,178,59.6,178,68.2z M161.7,74.7
			c3.2,0,6.7-1.8,6.7-6.6c0-4.7-3.5-6.6-6.7-6.6h-2.2v13.2L161.7,74.7L161.7,74.7z"/>
	</g>
	<g>
		<path class="st3" d="M199.1,78.7h-9.9l-1.2,4h-10.2l11.4-29.1h9.8l11.4,29.1h-10.2L199.1,78.7z M197.1,72.3l-2.9-9.5l-2.9,9.5
			H197.1z"/>
	</g>
	<g>
		<path class="st3" d="M241.9,68.2c0,8.6-6.4,14.5-15.7,14.5h-12.3V53.6h12.3C235.5,53.6,241.9,59.6,241.9,68.2z M225.6,74.7
			c3.2,0,6.7-1.8,6.7-6.6c0-4.7-3.5-6.6-6.7-6.6h-2.2v13.2L225.6,74.7L225.6,74.7z"/>
	</g>
	<g>
		<path class="st3" d="M255.2,61.1v4h13.2v6.1h-13.2v4h13.2v7.5h-22.7V53.6h22.7v7.5H255.2z"/>
	</g>
</g>
<g>
	<path class="st0" d="M36.9,30.3c-2.4,0-4.5-0.6-6.2-1.7c-1.7-1.1-2.9-2.7-3.6-4.7l3-1.7c1,3.1,3.3,4.7,6.9,4.7
		c1.8,0,3.1-0.4,4.1-1.1c0.9-0.7,1.4-1.7,1.4-2.9c0-1.2-0.5-2.2-1.4-2.8c-0.9-0.6-2.5-1.3-4.7-2c-1.1-0.4-1.9-0.7-2.5-0.9
		c-0.6-0.2-1.3-0.5-2.1-0.9c-0.9-0.4-1.5-0.9-1.9-1.3c-0.4-0.5-0.8-1.1-1.1-1.8c-0.3-0.7-0.5-1.6-0.5-2.5c0-2.3,0.8-4,2.4-5.4
		c1.6-1.3,3.5-2,5.8-2c2.1,0,3.8,0.5,5.4,1.6c1.5,1,2.7,2.4,3.4,4.1l-2.9,1.7c-1.1-2.7-3.1-4-5.9-4c-1.4,0-2.5,0.3-3.4,1
		c-0.9,0.7-1.3,1.6-1.3,2.8c0,1.1,0.4,2,1.2,2.6c0.8,0.6,2.2,1.2,4.2,1.9c0.7,0.2,1.2,0.4,1.5,0.5c0.3,0.1,0.8,0.3,1.4,0.5
		c0.6,0.2,1.1,0.4,1.4,0.6c0.3,0.1,0.7,0.4,1.2,0.6c0.5,0.3,0.9,0.5,1.1,0.8c0.2,0.2,0.5,0.6,0.9,0.9c0.3,0.4,0.6,0.7,0.7,1.1
		s0.3,0.8,0.4,1.3c0.1,0.5,0.2,1,0.2,1.5c0,2.3-0.8,4.1-2.5,5.4C41.7,29.6,39.6,30.3,36.9,30.3z"/>
	<path class="st0" d="M51.3,7.8c-0.6,0-1.1-0.2-1.6-0.6c-0.4-0.4-0.6-0.9-0.6-1.5s0.2-1.1,0.6-1.5c0.4-0.4,0.9-0.6,1.6-0.6
		c0.6,0,1.1,0.2,1.5,0.6c0.4,0.4,0.6,0.9,0.6,1.5s-0.2,1.1-0.6,1.5C52.4,7.6,51.9,7.8,51.3,7.8z M49.6,29.8V11.2h3.2v18.6H49.6z"/>
	<path class="st0" d="M60.6,16.2c0,0.7,0.4,1.3,1.1,1.7c0.7,0.4,1.6,0.8,2.6,1.1c1,0.3,2,0.6,3,0.9c1,0.3,1.9,0.9,2.6,1.7
		c0.7,0.8,1.1,1.9,1.1,3.2c0,1.7-0.6,3-1.9,4c-1.3,1-3,1.5-5,1.5c-1.8,0-3.4-0.4-4.6-1.2c-1.3-0.8-2.2-1.8-2.7-3.2l2.8-1.6
		c0.3,0.9,0.9,1.6,1.7,2.1c0.8,0.5,1.8,0.8,2.9,0.8c1.1,0,1.9-0.2,2.6-0.6c0.7-0.4,1-1,1-1.9c0-0.7-0.4-1.3-1.1-1.7
		c-0.7-0.4-1.6-0.8-2.6-1.1c-1-0.3-2-0.6-3-0.9c-1-0.3-1.9-0.9-2.6-1.6c-0.7-0.8-1.1-1.8-1.1-3c0-1.6,0.6-2.9,1.9-4
		c1.3-1,2.8-1.6,4.7-1.6c1.5,0,2.9,0.3,4,1c1.2,0.7,2.1,1.6,2.7,2.8l-2.7,1.5c-0.7-1.6-2-2.4-4-2.4c-0.9,0-1.7,0.2-2.3,0.6
		C60.9,14.8,60.6,15.4,60.6,16.2z"/>
	<path class="st1" d="M84.1,14.3h-4.9v10.1c0,0.9,0.2,1.6,0.5,1.9c0.4,0.4,0.9,0.6,1.7,0.6c0.7,0,1.7,0,2.7-0.1v2.9
		c-2.8,0.4-4.9,0.1-6.2-0.7c-1.3-0.8-2-2.4-2-4.7V14.3h-3.7v-3.1H76V7l3.2-1v5.2h4.9V14.3z"/>
	<path class="st1" d="M89.3,22c0.3,1.7,1.1,2.9,2.3,3.9c1.2,0.9,2.7,1.4,4.4,1.4c2.5,0,4.2-0.9,5.3-2.7l2.7,1.6
		c-1.8,2.8-4.5,4.2-8.2,4.2c-2.9,0-5.3-0.9-7.2-2.8c-1.8-1.8-2.8-4.2-2.8-7c0-2.8,0.9-5.1,2.7-7c1.8-1.9,4.1-2.8,7-2.8
		c2.7,0,4.9,1,6.7,2.9c1.7,1.9,2.6,4.2,2.6,6.9c0,0.5,0,1-0.1,1.4H89.3z M95.7,13.8c-1.7,0-3.2,0.5-4.3,1.5c-1.1,1-1.8,2.3-2.1,3.9
		h12.4c-0.3-1.8-1-3.1-2.1-4C98.5,14.2,97.2,13.8,95.7,13.8z"/>
	<path class="st1" d="M128.7,10.7c2.1,0,3.8,0.7,5,2c1.3,1.3,1.9,3.2,1.9,5.5v11.5h-3.2V18.3c0-1.4-0.4-2.5-1.1-3.3
		c-0.7-0.8-1.7-1.2-3-1.2c-1.4,0-2.5,0.5-3.3,1.4c-0.8,0.9-1.2,2.3-1.2,4.3v10.3h-3.2V18.3c0-1.4-0.4-2.5-1.1-3.3
		c-0.7-0.8-1.7-1.2-2.9-1.2c-1.4,0-2.5,0.5-3.4,1.4c-0.9,0.9-1.4,2.4-1.4,4.2v10.3h-3.2V11.2h3.2v2.5c1.3-2,3.1-3,5.5-3
		c2.5,0,4.3,1.1,5.5,3.2C124.2,11.8,126.1,10.7,128.7,10.7z"/>
	<path class="st2" d="M155.6,11.2h3.2v18.6h-3.2v-3.2c-1.6,2.5-3.9,3.7-7,3.7c-2.6,0-4.8-0.9-6.6-2.8c-1.8-1.9-2.7-4.2-2.7-6.9
		c0-2.7,0.9-5,2.7-6.9c1.8-1.9,4-2.8,6.6-2.8c3.1,0,5.4,1.2,7,3.7V11.2z M149,27.1c1.9,0,3.5-0.6,4.7-1.9c1.3-1.3,1.9-2.9,1.9-4.7
		c0-1.9-0.6-3.5-1.9-4.7c-1.3-1.3-2.8-1.9-4.7-1.9c-1.9,0-3.4,0.6-4.7,1.9c-1.3,1.3-1.9,2.9-1.9,4.7c0,1.9,0.6,3.5,1.9,4.7
		S147.1,27.1,149,27.1z"/>
	<path class="st2" d="M188.4,3.8h3.2v26h-3.2v-3.2c-1.6,2.5-3.9,3.7-7,3.7c-2.6,0-4.8-0.9-6.6-2.8c-1.8-1.9-2.7-4.2-2.7-6.9
		c0-2.7,0.9-5,2.7-6.9c1.8-1.9,4-2.8,6.6-2.8c3.1,0,5.4,1.2,7,3.7V3.8z M181.8,27.1c1.9,0,3.5-0.6,4.7-1.9c1.3-1.3,1.9-2.9,1.9-4.7
		c0-1.9-0.6-3.5-1.9-4.7c-1.3-1.3-2.8-1.9-4.7-1.9c-1.9,0-3.4,0.6-4.7,1.9c-1.3,1.3-1.9,2.9-1.9,4.7c0,1.9,0.6,3.5,1.9,4.7
		C178.3,26.5,179.9,27.1,181.8,27.1z"/>
	<path class="st2" d="M198.8,22c0.3,1.7,1.1,2.9,2.3,3.9c1.2,0.9,2.7,1.4,4.4,1.4c2.5,0,4.2-0.9,5.3-2.7l2.7,1.6
		c-1.8,2.8-4.5,4.2-8.2,4.2c-2.9,0-5.3-0.9-7.2-2.8c-1.8-1.8-2.8-4.2-2.8-7c0-2.8,0.9-5.1,2.7-7s4.1-2.8,7-2.8c2.7,0,4.9,1,6.7,2.9
		c1.7,1.9,2.6,4.2,2.6,6.9c0,0.5,0,1-0.1,1.4H198.8z M205.2,13.8c-1.7,0-3.2,0.5-4.3,1.5c-1.1,1-1.8,2.3-2.1,3.9h12.4
		c-0.3-1.8-1-3.1-2.1-4C208,14.2,206.7,13.8,205.2,13.8z"/>
</g>
</svg>
