<?xml version="1.0" encoding="utf-8"?>
<!-- Generator: Adobe Illustrator 25.0.0, SVG Export Plug-In . SVG Version: 6.00 Build 0)  -->
<svg version="1.1" id="Camada_1" xmlns="http://www.w3.org/2000/svg" xmlns:xlink="http://www.w3.org/1999/xlink" x="0px" y="0px"
	 viewBox="0 0 209.9 38.4" style="enable-background:new 0 0 209.9 38.4;" xml:space="preserve">
<style type="text/css">
	.st0{fill:#EA902F;}
	.st1{fill:#ED7C2F;}
	.st2{fill:#EE632E;}
	.st3{fill:#FFFFFF;}
</style>
<path class="st0" d="M79.3,13.5c-3,0-5.8,1.2-7.8,3.2V3.2h-3.2v32.2h3.2v-3.2c2,2,4.7,3.2,7.8,3.2c6,0,10.9-4.9,10.9-10.9
	S85.3,13.5,79.3,13.5z M79.3,32.2c-4.3,0-7.8-3.5-7.8-7.8s3.5-7.8,7.8-7.8s7.8,3.5,7.8,7.8S83.5,32.2,79.3,32.2z"/>
<path class="st1" d="M53.2,13.5c-6,0-10.9,4.9-10.9,10.9s4.9,10.9,10.9,10.9c2.5,0,4.8-0.8,6.6-2.2l-2.3-2.3
	c-1.2,0.9-2.7,1.4-4.4,1.4c-3.7,0-6.9-2.7-7.6-6.2H64c0.1-0.5,0.1-1,0.1-1.6C64.1,18.4,59.2,13.5,53.2,13.5z M45.6,22.9
	c0.7-3.5,3.9-6.2,7.6-6.2s6.9,2.7,7.6,6.2H45.6z"/>
<polygon class="st2" points="37.7,13.5 28.7,31.4 23.2,20.4 20.1,20.4 14.5,31.4 5.5,13.5 2,13.6 13,35.4 16.1,35.4 21.6,24.4 
	27.2,35.4 30.2,35.4 41.3,13.6 "/>
<rect x="112.2" y="7.5" class="st3" width="88" height="25.9"/>
<g>
	<g>
		<g>
			<g>
				<path class="st2" d="M187.5,15.7h-1.9v2.7h1.8c1.2,0,1.7-0.6,1.7-1.4C189.1,16.2,188.6,15.7,187.5,15.7z"/>
			</g>
			<g>
				<path class="st2" d="M161.4,15.7l-2,0v2.9l2,0h0c1,0,1.6-0.6,1.6-1.4C163,16.2,162.4,15.7,161.4,15.7z"/>
			</g>
			<g>
				<polygon class="st2" points="132.3,21 134.9,21 133.6,16.7 				"/>
			</g>
			<g>
				<g>
					<path class="st2" d="M201.2,3.2h-94.5l-9.2,32.2h103.7c4.1,0,7.4-2.9,7.4-6.6V9.8C208.6,6.1,205.3,3.2,201.2,3.2z M125.2,24.6
						c0,2.9-1.4,5.4-4.2,5.4l-0.7,0c-0.5,0-1.1,0-1.8,0v-4.3c0.2,0,1.1,0,1.5,0c0.8,0,1-0.9,1-2.2V12.6h4.3V24.6z M136.4,25.7
						l-0.6-1.8h-4.5l-0.6,1.8h-4.6l5.2-13.2h4.4l5.2,13.2H136.4z M147.6,25.7L147.6,25.7c-2.1,0-4.1-0.4-6.2-1.8l2.2-2.7
						c1.5,1.2,2.8,1.3,3.9,1.3c0.9,0,1.5-0.3,1.5-0.9c0-0.6-1.3-1-3-1.4c-2.4-0.5-3.6-1.8-3.6-3.5c0-2.8,2.6-4.2,5.4-4.2
						c2.3,0,4,0.6,5.4,1.5l-2.2,2.6c-1-0.7-2.1-1-2.9-1c-0.8,0-1.4,0.3-1.4,0.8c0,0.5,1,0.8,3.1,1.4c1.8,0.5,3.6,1.4,3.6,3.6
						C153.4,24.3,151,25.7,147.6,25.7z M162.5,21.7l-3,0v4.1h-4.3V12.6h7.3v0c2.9,0,4.9,2,4.9,4.6C167.4,19.6,165.4,21.7,162.5,21.7
						z M179.5,16h-6v1.8h6v2.8h-6v1.8h6v3.4h-10.3V12.6h10.3V16z M189.5,25.7c-0.3-0.6-0.8-2.6-1.4-3.5c-0.4-0.7-1.1-1.2-2.6-1.3
						v4.8h-4.3V12.6h7.2c2.1,0,5.1,0.8,5.1,3.9c0,1.9-1.5,3-3.3,3.6c1,0.3,1.8,0.8,2.2,1.6v0c0.7,1.1,1.1,2.8,2.1,4.1H189.5z"/>
				</g>
			</g>
		</g>
	</g>
	<g>
		<polygon class="st1" points="134.9,21 134.8,20.6 134.7,21 		"/>
		<path class="st1" d="M187.5,15.7h-1.9v2.7h1.8c1.2,0,1.7-0.6,1.7-1.4C189.1,16.2,188.6,15.7,187.5,15.7z"/>
		<path class="st1" d="M161.4,15.7l-2,0v2.9l2,0h0c1,0,1.6-0.6,1.6-1.4C163,16.2,162.4,15.7,161.4,15.7z"/>
		<path class="st1" d="M201.2,3.2h-61.5l-3.2,11.3l4.4,11.3h-4.6l-0.6-1.8h-2l-3.3,11.5h70.7c4.1,0,7.4-2.9,7.4-6.6V9.8
			C208.6,6.1,205.3,3.2,201.2,3.2z M147.6,25.7L147.6,25.7c-2.1,0-4.1-0.4-6.2-1.8l2.2-2.7c1.5,1.2,2.8,1.3,3.9,1.3
			c0.9,0,1.5-0.3,1.5-0.9c0-0.6-1.3-1-3-1.4c-2.4-0.5-3.6-1.8-3.6-3.5c0-2.8,2.6-4.2,5.4-4.2c2.3,0,4,0.6,5.4,1.5l-2.2,2.6
			c-1-0.7-2.1-1-2.9-1c-0.8,0-1.4,0.3-1.4,0.8c0,0.5,1,0.8,3.1,1.4c1.8,0.5,3.6,1.4,3.6,3.6C153.4,24.3,151,25.7,147.6,25.7z
			 M162.5,21.7l-3,0v4.1h-4.3V12.6h7.3v0c2.9,0,4.9,2,4.9,4.6C167.4,19.6,165.4,21.7,162.5,21.7z M179.5,16h-6v1.8h6v2.8h-6v1.8h6
			v3.4h-10.3V12.6h10.3V16z M189.5,25.7c-0.3-0.6-0.8-2.6-1.4-3.5c-0.4-0.7-1.1-1.2-2.6-1.3v4.8h-4.3V12.6h7.2
			c2.1,0,5.1,0.8,5.1,3.9c0,1.9-1.5,3-3.3,3.6c1,0.3,1.8,0.8,2.2,1.6v0c0.7,1.1,1.1,2.8,2.1,4.1H189.5z"/>
	</g>
	<g>
		<path class="st0" d="M187.5,15.7h-1.9v2.7h1.8c1.2,0,1.7-0.6,1.7-1.4C189.1,16.2,188.6,15.7,187.5,15.7z"/>
		<path class="st0" d="M201.2,3.2h-28.1l-2.7,9.4h9V16h-6v1.8h6v2.8h-6v1.8h6v3.4h-10.3v-8.6L164,35.4h37.2c4.1,0,7.4-2.9,7.4-6.6
			V9.8C208.6,6.1,205.3,3.2,201.2,3.2z M189.5,25.7c-0.3-0.6-0.8-2.6-1.4-3.5c-0.4-0.7-1.1-1.2-2.6-1.3v4.8h-4.3V12.6h7.2
			c2.1,0,5.1,0.8,5.1,3.9c0,1.9-1.5,3-3.3,3.6c1,0.3,1.8,0.8,2.2,1.6v0c0.7,1.1,1.1,2.8,2.1,4.1H189.5z"/>
	</g>
</g>
</svg>
