<?xml version="1.0" encoding="utf-8"?>
<!-- Generator: Adobe Illustrator 25.0.0, SVG Export Plug-In . SVG Version: 6.00 Build 0)  -->
<svg version="1.1" id="Camada_1" xmlns="http://www.w3.org/2000/svg" xmlns:xlink="http://www.w3.org/1999/xlink" x="0px" y="0px"
	 viewBox="0 0 300 43.6" style="enable-background:new 0 0 300 43.6;" xml:space="preserve">
<style type="text/css">
	.st0{fill:#FFFFFF;}
</style>
<g>
	<path class="st0" d="M25.5,23.9c2.7-2.2,6.8-4.2,12.8-4.2c6.2,0,10.5,2.2,13.3,4.4c1.1,0.9,2.6,0.8,3.6-0.2c1.1-1.1,1-3-0.2-4
		c-3.5-2.9-8.9-5.6-16.7-5.6c-7.5,0-12.7,2.6-16.2,5.4c-1.2,1-1.4,2.9-0.2,4C22.9,24.7,24.4,24.8,25.5,23.9z"/>
	<path class="st0" d="M47,27.9c-1.8-1.5-4.6-2.8-8.5-2.8c-3.8,0-6.4,1.3-8.2,2.7c-1.3,1-1.4,2.9-0.2,4c1,1,2.5,1.1,3.6,0.2
		c1-0.8,2.6-1.5,4.9-1.5c2.4,0,4,0.9,5.1,1.7c1,0.8,2.5,0.7,3.5-0.3C48.3,30.8,48.2,28.9,47,27.9z"/>
	<path class="st0" d="M62.8,12c-5.6-4.1-13.7-8.4-24.2-8.5h-0.1c-9.1,0.1-16.4,3.3-21.8,6.9l-3.6-8.1C12.5,0.9,11.1,0,9.6,0H2.4
		C1.1,0,0,1.1,0,2.4c0,1.4,1.1,2.4,2.4,2.5h5.4c0.7,0,1.3,0.4,1.6,1l4,9c0.1,0.4,0.3,0.8,0.6,1.1c0.9,0.9,2.4,1,3.5,0.2
		C23.1,12,31,9,38.6,8.9c7.5,0.1,15.5,3.1,21,7.3c1.1,0.8,2.5,0.7,3.5-0.2C64.2,14.9,64.1,13,62.8,12z"/>
	<circle class="st0" cx="51.3" cy="38.8" r="4.7"/>
	<ellipse transform="matrix(0.9871 -0.1602 0.1602 0.9871 -5.8652 4.842)" class="st0" cx="27.1" cy="38.8" rx="4.7" ry="4.7"/>
	<path class="st0" d="M162.1,16.2c-3.2,0-6.2,1.3-8.3,3.5V5.1h-3.4v34.3h3.4V36c2.1,2.1,5,3.5,8.3,3.5c6.4,0,11.7-5.2,11.7-11.7
		S168.5,16.2,162.1,16.2z M162.1,36.1c-4.6,0-8.3-3.7-8.3-8.3c0-4.6,3.7-8.3,8.3-8.3c4.6,0,8.3,3.7,8.3,8.3
		C170.4,32.4,166.6,36.1,162.1,36.1z"/>
	<path class="st0" d="M134.3,16.2c-6.4,0-11.7,5.2-11.7,11.7s5.2,11.7,11.7,11.7c2.7,0,5.1-0.9,7.1-2.4l-2.4-2.4
		c-1.3,0.9-2.9,1.4-4.7,1.4c-4,0-7.3-2.8-8.1-6.6h19.6c0.1-0.6,0.1-1.1,0.1-1.7C145.9,21.4,140.7,16.2,134.3,16.2z M126.2,26.1
		c0.8-3.8,4.1-6.6,8.1-6.6s7.3,2.8,8.1,6.6H126.2z"/>
	<polygon class="st0" points="108.1,35.2 102.2,23.5 99,23.5 93.1,35.2 83.4,16.2 79.7,16.2 91.4,39.5 94.7,39.5 100.6,27.7 
		106.5,39.5 109.8,39.5 121.5,16.2 117.8,16.2 	"/>
	<polygon class="st0" points="221.3,23.7 220,19.6 218.6,24.1 221.2,24.1 221.4,24.1 221.3,23.7 	"/>
	<path class="st0" d="M249.7,18.4h-2.1v3.1h2.1c1.1,0,1.7-0.6,1.7-1.5C251.4,19,250.8,18.5,249.7,18.4z"/>
	<path class="st0" d="M277.5,18.4h-2v2.9h2c1.2,0,1.8-0.6,1.8-1.5C279.2,19,278.7,18.4,277.5,18.4z"/>
	<path class="st0" d="M292.1,5.1h-29.9h-35.7h-35.2l-9.8,34.3h35.3h75.3h0c1.6,0,3.1-0.4,4.4-1.2c0.2-0.1,0.4-0.3,0.6-0.4
		c0.4-0.3,0.8-0.6,1.1-1c1.2-1.2,1.9-2.8,1.9-4.5V12.1C300,8.3,296.5,5.1,292.1,5.1z M211.2,28L211.2,28c-0.1,3.1-1.6,5.8-4.6,5.8
		h-0.7c-0.5,0-1.2,0-1.9,0v-4.6c0.2,0,1.2,0,1.6,0c0.8,0,1-1,1-2.4V15.1h4.6V28z M223,29.1l-0.6-1.9h-2.1l0,0.1h-2.7l-0.6,1.9h-4.9
		l5.5-14h4.7l5.5,13.9H223z M235,29.2c-2.2,0-4.4-0.4-6.6-1.9l2.4-2.9c1.6,1.2,3,1.4,4.1,1.4c1,0,1.6-0.4,1.6-1c0-0.7-1.4-1-3.2-1.5
		c-2.5-0.6-3.9-1.9-3.9-3.7c0-3,2.7-4.5,5.7-4.5c2.5,0,4.3,0.7,5.8,1.6l-2.3,2.8c-1.1-0.7-2.2-1-3.1-1c-0.9,0-1.5,0.3-1.5,0.9
		c0,0.6,1,0.8,3.3,1.4c1.9,0.5,3.9,1.5,3.9,3.9C241.1,27.6,238.6,29.2,235,29.2z M250.8,24.8h-3.2v4.3H243v-14h7.8
		c3.1,0,5.2,2.2,5.2,4.9C256,22.7,254,24.8,250.8,24.8z M268.9,18.7h-6.3v0.1h-0.1v1.9h6.4v2.8h-6.3v0.1h-0.1v1.9h6.4V29H258v-9.1
		l-0.1,0.4v-5.2h1.5h9.5V18.7z M279.7,29.2c-0.4-0.7-0.9-2.8-1.5-3.8c-0.5-0.8-1.1-1.3-2.8-1.4v5.2h-4.6v-14h7.6
		c2.3,0,5.4,0.8,5.4,4.2c0,2.1-1.6,3.2-3.5,3.8c1,0.3,1.9,0.9,2.4,1.7c0.7,1.2,1.2,3,2.2,4.3H279.7z"/>
</g>
</svg>
