<?xml version="1.0" encoding="utf-8"?>
<!-- Generator: Adobe Illustrator 25.0.0, SVG Export Plug-In . SVG Version: 6.00 Build 0)  -->
<svg version="1.1" id="Camada_1" xmlns="http://www.w3.org/2000/svg" xmlns:xlink="http://www.w3.org/1999/xlink" x="0px" y="0px"
	 viewBox="0 0 400 103.6" style="enable-background:new 0 0 400 103.6;" xml:space="preserve">
<style type="text/css">
	.st0{fill:#EE632E;}
	.st1{fill:#ED7C2F;}
	.st2{fill:#EA902F;}
	.st3{fill:#FFFFFF;}
</style>
<path class="st0" d="M279.5,100.9H2.7l22.2-58.2h254.6c6.3,0,11.4,5.1,11.4,11.4v35.3C290.9,95.7,285.8,100.9,279.5,100.9z"/>
<path class="st1" d="M397.4,89.4V54.1c0-6.3-6.7-11.4-15-11.4H149.9l-29.3,58.2h261.6C390.6,100.9,397.4,95.7,397.4,89.4z"/>
<path class="st2" d="M397.4,89.4V54.1c0-6.3-5.1-11.4-11.4-11.4H269.7l-22.2,58.2h138.4C392.2,100.9,397.4,95.7,397.4,89.4z"/>
<g>
	<path class="st3" d="M39.2,71.8c0-8.1,6-14.7,15.4-14.7c3.7,0,6.9,1.1,9.4,2.8l-4.8,7c-1.1-1.2-2.7-1.9-4.5-1.9
		c-4,0-6.4,3.3-6.4,6.8c0,3.4,2.4,6.7,6.4,6.7c1.8,0,3.4-0.8,4.5-1.9l4.8,7c-2.5,1.8-5.7,2.9-9.4,2.9C45.2,86.5,39.2,79.9,39.2,71.8
		z"/>
</g>
<g>
	<path class="st3" d="M94.5,77.5c1.5,2.5,2.4,6.2,4.7,9.1H88c-0.7-1.5-1.8-5.8-3-7.9c-1-1.6-2.4-2.8-5.9-2.9v10.8h-9.6V57.1h16
		c4.7,0,11.3,1.8,11.3,8.8c0,4.3-3.3,6.8-7.3,8C91.7,74.7,93.5,75.8,94.5,77.5L94.5,77.5z M79.1,64v6.1h4.1c2.6,0,3.9-1.2,3.9-3.1
		c0-1.8-1.2-3-3.7-3H79.1z"/>
</g>
<g>
	<path class="st3" d="M164.9,57.1v29.4h-8.7l-10.5-14.9v14.9h-9.1V57.1h8.7l10.5,15.1V57.1H164.9z"/>
</g>
<g>
	<path class="st3" d="M170.3,71.8c0-8.1,6.2-14.6,15.8-14.6c9.6,0,15.8,6.5,15.8,14.6c0,8.1-6.2,14.7-15.8,14.7
		C176.5,86.5,170.3,79.9,170.3,71.8z M192.7,71.8c0-3.4-2.4-6.7-6.6-6.7c-4.1,0-6.6,3.3-6.6,6.7c0,3.4,2.4,6.8,6.6,6.8
		C190.2,78.6,192.7,75.2,192.7,71.8z"/>
</g>
<g>
	<path class="st3" d="M100.5,71.8c0-8.1,6.2-14.6,15.8-14.6c9.6,0,15.8,6.5,15.8,14.6c0,8.1-6.2,14.7-15.8,14.7
		C106.6,86.5,100.5,79.9,100.5,71.8z M122.8,71.8c0-3.4-2.4-6.7-6.6-6.7c-4.1,0-6.6,3.3-6.6,6.7c0,3.4,2.4,6.8,6.6,6.8
		C120.3,78.6,122.8,75.2,122.8,71.8z"/>
</g>
<g>
	<path class="st3" d="M234.7,69.4v14.1c0,0-4.4,3.1-12.6,3.1c-10.5,0-15.5-7.3-15.5-14.6c0-7.7,5.3-14.9,15.8-14.9
		c4.5,0,7.4,0.9,10.4,2.7l-4,6.9c-0.9-0.6-3.2-1.8-5.9-1.8c-3,0-7,1.8-7,7.1c0,4.5,2.8,7,6.6,7.1c1,0,2.6-0.1,3.9-0.6v-3.3h-5.1
		v-5.8H234.7z"/>
</g>
<g>
	<path class="st3" d="M265.5,77.5c1.5,2.5,2.4,6.2,4.7,9.1H259c-0.7-1.5-1.8-5.8-3-7.9c-1-1.6-2.4-2.8-5.9-2.9v10.8h-9.6V57.1h16
		c4.7,0,11.3,1.8,11.3,8.8c0,4.3-3.3,6.8-7.3,8C262.7,74.7,264.5,75.8,265.5,77.5L265.5,77.5z M250.1,64v6.1h4.1
		c2.6,0,3.9-1.2,3.9-3.1c0-1.8-1.2-3-3.7-3H250.1z"/>
</g>
<g>
	<path class="st3" d="M293.4,82.5h-10l-1.3,4h-10.3l11.6-29.4h9.9l11.6,29.4h-10.3L293.4,82.5z M291.4,76l-3-9.6l-3,9.6H291.4z"/>
</g>
<g>
	<path class="st3" d="M342.2,57.1v29.4h-9.1V75.3l-5.5,11.2h-4.9l-5.5-11.2v11.2h-9.1V57.1h8.4l8.7,17.6l8.7-17.6H342.2z"/>
</g>
<g>
	<path class="st3" d="M366.6,82.5h-10l-1.3,4h-10.3l11.6-29.4h9.9l11.6,29.4h-10.3L366.6,82.5z M364.6,76l-3-9.6l-3,9.6H364.6z"/>
</g>
<g>
	<path class="st0" d="M35.6,31.1c-2.4,0-4.5-0.6-6.2-1.7c-1.7-1.1-2.9-2.7-3.6-4.7l3-1.7c1,3.1,3.3,4.7,7,4.7c1.8,0,3.1-0.4,4.1-1.1
		c0.9-0.7,1.4-1.7,1.4-2.9c0-1.2-0.5-2.2-1.4-2.8c-0.9-0.6-2.5-1.3-4.7-2c-1.1-0.4-1.9-0.7-2.5-0.9c-0.6-0.2-1.3-0.5-2.1-0.9
		c-0.9-0.4-1.5-0.9-1.9-1.3c-0.4-0.5-0.8-1.1-1.1-1.8c-0.3-0.7-0.5-1.6-0.5-2.5c0-2.3,0.8-4,2.4-5.4c1.6-1.3,3.5-2,5.8-2
		c2.1,0,3.8,0.5,5.4,1.6c1.5,1,2.7,2.4,3.4,4.1L41,11.5c-1.1-2.7-3.1-4-5.9-4c-1.4,0-2.6,0.3-3.4,1c-0.9,0.7-1.3,1.6-1.3,2.8
		c0,1.1,0.4,2,1.2,2.6c0.8,0.6,2.2,1.2,4.2,1.9c0.7,0.2,1.2,0.4,1.5,0.5c0.3,0.1,0.8,0.3,1.4,0.5c0.6,0.2,1.1,0.4,1.4,0.6
		c0.3,0.1,0.7,0.4,1.2,0.6s0.9,0.5,1.1,0.8c0.2,0.2,0.5,0.6,0.9,0.9c0.3,0.4,0.6,0.7,0.7,1.1s0.3,0.8,0.4,1.3c0.1,0.5,0.2,1,0.2,1.5
		c0,2.3-0.8,4.1-2.5,5.4C40.4,30.5,38.3,31.1,35.6,31.1z"/>
	<path class="st0" d="M50,8.7c-0.6,0-1.1-0.2-1.6-0.6c-0.4-0.4-0.6-0.9-0.6-1.5S48,5.4,48.4,5c0.4-0.4,0.9-0.7,1.6-0.7
		c0.6,0,1.1,0.2,1.5,0.7c0.4,0.4,0.6,0.9,0.6,1.5S51.9,7.6,51.5,8C51.1,8.5,50.6,8.7,50,8.7z M48.4,30.6V12.1h3.2v18.6H48.4z"/>
	<path class="st0" d="M59.3,17c0,0.7,0.4,1.3,1.1,1.7c0.7,0.4,1.6,0.8,2.6,1.1c1,0.3,2,0.6,3,0.9c1,0.3,1.9,0.9,2.6,1.7
		c0.7,0.8,1.1,1.9,1.1,3.2c0,1.7-0.7,3-2,4.1c-1.3,1-3,1.5-5,1.5c-1.8,0-3.4-0.4-4.6-1.2c-1.3-0.8-2.2-1.8-2.8-3.2l2.8-1.6
		c0.3,0.9,0.9,1.6,1.7,2.1s1.8,0.8,2.9,0.8c1.1,0,1.9-0.2,2.6-0.6c0.7-0.4,1-1,1-1.9c0-0.7-0.4-1.3-1.1-1.7
		c-0.7-0.4-1.6-0.8-2.6-1.1c-1-0.3-2-0.6-3-0.9c-1-0.3-1.9-0.9-2.6-1.6c-0.7-0.8-1.1-1.8-1.1-3c0-1.6,0.6-2.9,1.9-4
		c1.3-1,2.8-1.6,4.7-1.6c1.5,0,2.9,0.3,4,1c1.2,0.7,2.1,1.6,2.7,2.8L66.6,17c-0.7-1.6-2-2.4-4-2.4c-0.9,0-1.7,0.2-2.3,0.6
		C59.6,15.6,59.3,16.2,59.3,17z"/>
	<path class="st1" d="M82.9,15.2h-4.9v10.1c0,0.9,0.2,1.6,0.5,2c0.4,0.4,0.9,0.6,1.7,0.6c0.7,0,1.7,0,2.8-0.1v2.9
		C80.1,31,78,30.8,76.7,30c-1.3-0.8-2-2.4-2-4.7V15.2H71v-3.1h3.7V7.8l3.2-1v5.2h4.9V15.2z"/>
	<path class="st1" d="M88.1,22.8c0.3,1.7,1.1,2.9,2.3,3.9c1.2,0.9,2.7,1.4,4.4,1.4c2.5,0,4.2-0.9,5.4-2.7l2.8,1.6
		c-1.8,2.8-4.5,4.2-8.2,4.2c-2.9,0-5.3-0.9-7.2-2.8c-1.8-1.8-2.8-4.2-2.8-7c0-2.8,0.9-5.1,2.7-7c1.8-1.9,4.2-2.8,7-2.8
		c2.7,0,5,1,6.7,2.9c1.7,1.9,2.6,4.2,2.6,6.9c0,0.5,0,1-0.1,1.4H88.1z M94.5,14.6c-1.7,0-3.2,0.5-4.3,1.5c-1.1,1-1.8,2.3-2.1,3.9
		h12.4c-0.3-1.8-1-3.1-2.1-4C97.3,15.1,96,14.6,94.5,14.6z"/>
	<path class="st1" d="M127.5,11.6c2.1,0,3.8,0.7,5.1,2c1.3,1.4,1.9,3.2,1.9,5.5v11.6h-3.2V19.2c0-1.4-0.4-2.6-1.1-3.3
		c-0.7-0.8-1.7-1.2-3-1.2c-1.4,0-2.5,0.5-3.3,1.4c-0.8,0.9-1.2,2.3-1.2,4.3v10.3h-3.2V19.2c0-1.4-0.4-2.6-1.1-3.3
		c-0.7-0.8-1.7-1.2-2.9-1.2c-1.4,0-2.5,0.5-3.4,1.4c-0.9,0.9-1.4,2.4-1.4,4.2v10.3h-3.2V12.1h3.2v2.5c1.3-2,3.1-3,5.5-3
		c2.5,0,4.3,1.1,5.5,3.2C123,12.6,124.9,11.6,127.5,11.6z"/>
	<path class="st2" d="M154.4,12.1h3.2v18.6h-3.2v-3.2c-1.6,2.5-4,3.7-7,3.7c-2.6,0-4.8-0.9-6.7-2.8c-1.8-1.9-2.8-4.2-2.8-6.9
		c0-2.7,0.9-5,2.8-6.9c1.8-1.9,4.1-2.8,6.7-2.8c3.1,0,5.4,1.2,7,3.7V12.1z M147.8,28c1.9,0,3.5-0.6,4.7-1.9s1.9-2.9,1.9-4.7
		c0-1.9-0.6-3.5-1.9-4.7c-1.3-1.3-2.8-1.9-4.7-1.9c-1.9,0-3.4,0.6-4.7,1.9c-1.3,1.3-1.9,2.9-1.9,4.7c0,1.9,0.6,3.5,1.9,4.7
		S145.9,28,147.8,28z"/>
	<path class="st2" d="M187.3,4.6h3.2v26h-3.2v-3.2c-1.6,2.5-4,3.7-7,3.7c-2.6,0-4.8-0.9-6.7-2.8c-1.8-1.9-2.8-4.2-2.8-6.9
		c0-2.7,0.9-5,2.8-6.9c1.8-1.9,4.1-2.8,6.7-2.8c3.1,0,5.4,1.2,7,3.7V4.6z M180.6,28c1.9,0,3.5-0.6,4.7-1.9s1.9-2.9,1.9-4.7
		c0-1.9-0.6-3.5-1.9-4.7c-1.3-1.3-2.8-1.9-4.7-1.9c-1.9,0-3.4,0.6-4.7,1.9c-1.3,1.3-1.9,2.9-1.9,4.7c0,1.9,0.6,3.5,1.9,4.7
		S178.8,28,180.6,28z"/>
	<path class="st2" d="M197.7,22.8c0.3,1.7,1.1,2.9,2.3,3.9c1.2,0.9,2.7,1.4,4.4,1.4c2.5,0,4.2-0.9,5.4-2.7l2.8,1.6
		c-1.8,2.8-4.5,4.2-8.2,4.2c-2.9,0-5.3-0.9-7.2-2.8c-1.8-1.8-2.8-4.2-2.8-7c0-2.8,0.9-5.1,2.7-7s4.2-2.8,7-2.8c2.7,0,5,1,6.7,2.9
		c1.7,1.9,2.6,4.2,2.6,6.9c0,0.5,0,1-0.1,1.4H197.7z M204.1,14.6c-1.7,0-3.2,0.5-4.3,1.5c-1.1,1-1.8,2.3-2.1,3.9h12.4
		c-0.3-1.8-1-3.1-2.1-4C206.9,15.1,205.6,14.6,204.1,14.6z"/>
</g>
</svg>
