<?xml version="1.0" encoding="utf-8"?>
<!-- Generator: Adobe Illustrator 25.0.0, SVG Export Plug-In . SVG Version: 6.00 Build 0)  -->
<svg version="1.1" id="Camada_1" xmlns="http://www.w3.org/2000/svg" xmlns:xlink="http://www.w3.org/1999/xlink" x="0px" y="0px"
	 viewBox="0 0 300 43.6" style="enable-background:new 0 0 300 43.6;" xml:space="preserve">
<style type="text/css">
	.st0{fill:#64666D;}
	.st1{fill:#ED7C2F;}
	.st2{fill:#EE632E;}
	.st3{fill:#EA902F;}
	.st4{fill:#FFFFFF;}
</style>
<path class="st0" d="M13.6,15.4L9.4,5.9c-0.3-0.6-0.9-1-1.6-1H2.4C1.1,4.8,0,3.8,0,2.4v0C0,1.1,1.1,0,2.4,0l7.2,0
	c1.5,0,2.9,0.9,3.5,2.3L18,13.4L13.6,15.4z"/>
<g>
	<g>
		<path class="st1" d="M38.3,14.3c-7.5,0-12.7,2.6-16.2,5.4c-1.2,1-1.4,2.9-0.2,4l0,0c1,1,2.5,1.1,3.6,0.2c2.7-2.2,6.8-4.2,12.8-4.2
			c6.2,0,10.5,2.2,13.3,4.4c1.1,0.9,2.6,0.8,3.6-0.2l0,0c1.1-1.1,1-3-0.2-4C51.5,17,46.1,14.3,38.3,14.3z"/>
	</g>
</g>
<path class="st2" d="M47.2,31.9c1.1-1.1,1-3-0.2-4c-1.8-1.5-4.6-2.8-8.5-2.8c-3.8,0-6.4,1.3-8.2,2.7c-1.3,1-1.4,2.9-0.2,4l0,0
	c1,1,2.5,1.1,3.6,0.2c1-0.8,2.6-1.5,4.9-1.5c2.4,0,4,0.9,5.1,1.7C44.7,33,46.2,32.9,47.2,31.9L47.2,31.9z"/>
<path class="st3" d="M62.8,12c-5.6-4.1-13.7-8.4-24.2-8.5h-0.1C28,3.6,19.9,7.9,14.3,12c-1.3,1-1.4,2.8-0.3,4c0.9,0.9,2.4,1,3.5,0.2
	C23.1,12,31,9,38.6,8.9c7.5,0.1,15.5,3.1,21,7.3c1.1,0.8,2.5,0.7,3.5-0.2C64.2,14.9,64.1,13,62.8,12z"/>
<circle class="st0" cx="51.3" cy="38.8" r="4.7"/>
<circle class="st0" cx="27.1" cy="38.8" r="4.7"/>
<path class="st3" d="M162.1,16.2c-3.2,0-6.2,1.3-8.3,3.5V5.1h-3.4v34.3h3.4V36c2.1,2.1,5,3.5,8.3,3.5c6.4,0,11.7-5.2,11.7-11.7
	S168.5,16.2,162.1,16.2z M162.1,36.1c-4.6,0-8.3-3.7-8.3-8.3s3.7-8.3,8.3-8.3s8.3,3.7,8.3,8.3S166.6,36.1,162.1,36.1z"/>
<path class="st1" d="M134.3,16.2c-6.4,0-11.7,5.2-11.7,11.7s5.2,11.7,11.7,11.7c2.7,0,5.1-0.9,7.1-2.4l-2.4-2.4
	c-1.3,0.9-2.9,1.4-4.7,1.4c-4,0-7.3-2.8-8.1-6.6h19.6c0.1-0.6,0.1-1.1,0.1-1.7C145.9,21.4,140.7,16.2,134.3,16.2z M126.2,26.1
	c0.8-3.8,4.1-6.6,8.1-6.6c4,0,7.3,2.8,8.1,6.6H126.2z"/>
<polygon class="st2" points="117.8,16.2 108.1,35.2 102.2,23.5 99,23.5 93.1,35.2 83.4,16.2 79.7,16.2 91.4,39.5 94.7,39.5 
	100.6,27.7 106.5,39.5 109.8,39.5 121.5,16.2 "/>
<rect x="197.2" y="9.7" class="st4" width="93.8" height="27.6"/>
<g>
	<g>
		<g>
			<g>
				<path class="st2" d="M277.5,18.4h-2v2.9h2c1.2,0,1.8-0.6,1.8-1.5C279.2,19,278.7,18.4,277.5,18.4z"/>
			</g>
			<g>
				<path class="st2" d="M249.7,18.4l-2.1,0v3.1l2.1,0h0c1.1,0,1.7-0.6,1.7-1.5C251.4,19,250.8,18.5,249.7,18.4z"/>
			</g>
			<g>
				<polygon class="st2" points="218.6,24.1 221.4,24.1 220,19.6 				"/>
			</g>
			<g>
				<g>
					<path class="st2" d="M292.1,5.1H191.3l-9.8,34.3h110.6c4.3,0,7.9-3.1,7.9-7V12.1C300,8.3,296.5,5.1,292.1,5.1z M211.1,28
						c0,3.1-1.5,5.8-4.5,5.8l-0.7,0c-0.5,0-1.2,0-1.9,0v-4.6c0.2,0,1.2,0,1.6,0c0.8,0,1-1,1-2.4V15.1h4.6V28z M223,29.2l-0.6-1.9
						h-4.8l-0.6,1.9h-4.9l5.5-14h4.7l5.5,14H223z M235,29.2L235,29.2c-2.2,0-4.4-0.4-6.6-1.9l2.4-2.9c1.6,1.2,3,1.4,4.1,1.4
						c1,0,1.6-0.4,1.6-1c0-0.7-1.4-1-3.2-1.5c-2.5-0.6-3.9-1.9-3.9-3.7c0-3,2.7-4.5,5.7-4.5c2.5,0,4.3,0.7,5.8,1.6l-2.3,2.8
						c-1.1-0.7-2.2-1-3.1-1c-0.9,0-1.5,0.3-1.5,0.9c0,0.6,1,0.8,3.3,1.4c1.9,0.5,3.9,1.5,3.9,3.9C241.1,27.6,238.6,29.2,235,29.2z
						 M250.8,24.8l-3.2,0v4.3H243v-14h7.8v0c3.1,0,5.2,2.2,5.2,4.9C256,22.7,254,24.8,250.8,24.8z M268.9,18.8h-6.4v1.9h6.4v2.9
						h-6.4v1.9h6.4v3.6h-11v-14h11V18.8z M279.7,29.2c-0.4-0.7-0.9-2.8-1.5-3.8c-0.5-0.8-1.1-1.3-2.8-1.4v5.2h-4.6v-14h7.6
						c2.3,0,5.4,0.8,5.4,4.2c0,2.1-1.6,3.2-3.5,3.8c1,0.3,1.9,0.9,2.4,1.7v0c0.7,1.2,1.2,3,2.2,4.3H279.7z"/>
				</g>
			</g>
		</g>
	</g>
	<g>
		<polygon class="st1" points="221.4,24.1 221.3,23.7 221.2,24.1 		"/>
		<path class="st1" d="M277.5,18.4h-2v2.9h2c1.2,0,1.8-0.6,1.8-1.5C279.2,19,278.7,18.4,277.5,18.4z"/>
		<path class="st1" d="M249.7,18.4l-2.1,0v3.1l2.1,0h0c1.1,0,1.7-0.6,1.7-1.5C251.4,19,250.8,18.5,249.7,18.4z"/>
		<path class="st1" d="M292.1,5.1h-65.6l-3.4,12l4.7,12H223l-0.6-1.9h-2.1l-3.5,12.2h75.3c4.3,0,7.9-3.1,7.9-7V12.1
			C300,8.3,296.5,5.1,292.1,5.1z M235,29.2L235,29.2c-2.2,0-4.4-0.4-6.6-1.9l2.4-2.9c1.6,1.2,3,1.4,4.1,1.4c1,0,1.6-0.4,1.6-1
			c0-0.7-1.4-1-3.2-1.5c-2.5-0.6-3.9-1.9-3.9-3.7c0-3,2.7-4.5,5.7-4.5c2.5,0,4.3,0.7,5.8,1.6l-2.3,2.8c-1.1-0.7-2.2-1-3.1-1
			c-0.9,0-1.5,0.3-1.5,0.9c0,0.6,1,0.8,3.3,1.4c1.9,0.5,3.9,1.5,3.9,3.9C241.1,27.6,238.6,29.2,235,29.2z M250.8,24.8l-3.2,0v4.3
			H243v-14h7.8v0c3.1,0,5.2,2.2,5.2,4.9C256,22.7,254,24.8,250.8,24.8z M268.9,18.8h-6.4v1.9h6.4v2.9h-6.4v1.9h6.4v3.6h-11v-14h11
			V18.8z M279.7,29.2c-0.4-0.7-0.9-2.8-1.5-3.8c-0.5-0.8-1.1-1.3-2.8-1.4v5.2h-4.6v-14h7.6c2.3,0,5.4,0.8,5.4,4.2
			c0,2.1-1.6,3.2-3.5,3.8c1,0.3,1.9,0.9,2.4,1.7v0c0.7,1.2,1.2,3,2.2,4.3H279.7z"/>
	</g>
	<g>
		<path class="st3" d="M277.5,18.4h-2v2.9h2c1.2,0,1.8-0.6,1.8-1.5C279.2,19,278.7,18.4,277.5,18.4z"/>
		<path class="st3" d="M292.1,5.1h-29.9l-2.8,10h9.6v3.6h-6.4v1.9h6.4v2.9h-6.4v1.9h6.4v3.6h-11v-9.1l-5.5,19.4h39.7
			c4.3,0,7.9-3.1,7.9-7V12.1C300,8.3,296.5,5.1,292.1,5.1z M279.7,29.2c-0.4-0.7-0.9-2.8-1.5-3.8c-0.5-0.8-1.1-1.3-2.8-1.4v5.2h-4.6
			v-14h7.6c2.3,0,5.4,0.8,5.4,4.2c0,2.1-1.6,3.2-3.5,3.8c1,0.3,1.9,0.9,2.4,1.7v0c0.7,1.2,1.2,3,2.2,4.3H279.7z"/>
	</g>
</g>
</svg>
