<?xml version="1.0" standalone="no"?>
<!DOCTYPE svg PUBLIC "-//W3C//DTD SVG 20010904//EN"
 "http://www.w3.org/TR/2001/REC-SVG-20010904/DTD/svg10.dtd">
<svg version="1.0" xmlns="http://www.w3.org/2000/svg"
 width="700.000000pt" height="700.000000pt" viewBox="0 0 700.000000 700.000000"
 preserveAspectRatio="xMidYMid meet">
<metadata>
Created by potrace 1.11, written by Peter Selinger 2001-2013
</metadata>
<g transform="translate(0.000000,700.000000) scale(0.100000,-0.100000)"
fill="#000000" stroke="none">
<path d="M256 5810 c-173 -68 -221 -283 -92 -418 75 -78 98 -82 474 -82 295 0
331 -2 367 -19 52 -23 82 -65 129 -176 21 -49 50 -115 63 -145 14 -30 40 -89
58 -130 49 -114 169 -387 202 -460 16 -36 40 -92 53 -125 39 -99 78 -149 148
-185 48 -25 73 -31 135 -31 72 0 113 17 207 86 219 160 469 304 710 409 47 21
94 41 105 46 230 104 702 233 971 265 33 4 68 9 79 11 123 24 535 23 695 0 14
-3 45 -7 70 -10 25 -3 59 -8 75 -10 17 -2 89 -16 160 -31 72 -15 137 -28 145
-30 105 -20 415 -124 600 -199 279 -115 661 -331 835 -474 116 -95 293 -81
392 32 105 119 90 302 -32 401 -63 51 -232 167 -352 242 -478 297 -980 500
-1478 597 -73 14 -95 18 -175 31 -238 38 -574 55 -800 41 -105 -7 -235 -18
-240 -21 -3 -1 -36 -6 -75 -10 -38 -4 -72 -8 -75 -10 -3 -1 -27 -6 -55 -9
-197 -27 -540 -121 -805 -223 -210 -80 -335 -141 -680 -329 -14 -7 -63 -38
-110 -68 -47 -30 -86 -54 -87 -53 -3 3 -383 868 -383 872 0 2 -13 24 -30 48
-58 86 -143 146 -243 173 -35 9 -164 13 -480 13 -405 0 -435 -1 -481 -19z"/>
<path d="M3958 4295 c-1 -1 -39 -6 -83 -9 -44 -4 -105 -11 -135 -16 -30 -5
-73 -11 -95 -14 -46 -6 -46 -6 -190 -40 -171 -40 -325 -93 -478 -165 -49 -22
-91 -41 -93 -41 -14 0 -276 -166 -351 -222 -123 -92 -160 -138 -177 -220 -30
-142 27 -260 156 -325 91 -46 204 -35 291 26 155 110 263 179 351 223 302 152
637 229 1004 231 106 0 341 -11 352 -18 3 -1 34 -6 70 -10 35 -4 74 -11 87
-16 13 -5 23 -7 23 -4 0 2 15 -1 33 -6 17 -5 44 -11 58 -14 58 -11 210 -59
302 -96 179 -72 323 -153 487 -274 98 -72 153 -93 231 -90 184 9 309 182 262
364 -23 93 -75 144 -289 287 -340 226 -767 381 -1179 429 -27 3 -66 8 -85 11
-37 6 -546 15 -552 9z"/>
<path d="M4059 3146 c-2 -2 -33 -7 -68 -10 -245 -26 -559 -162 -696 -303 -133
-137 -93 -365 80 -456 47 -25 179 -33 223 -15 15 7 64 36 109 65 157 102 308
145 503 144 194 -1 354 -53 533 -174 37 -26 84 -51 105 -57 94 -26 200 0 267
66 67 64 89 115 91 209 4 130 -39 196 -194 299 -178 118 -330 176 -582 221
-41 8 -364 17 -371 11z"/>
<path d="M2850 2164 c-138 -38 -255 -135 -318 -265 -40 -82 -51 -131 -50 -233
2 -181 110 -355 267 -431 89 -43 93 -45 142 -53 159 -29 327 24 445 142 92 92
144 208 148 334 9 224 -134 428 -349 499 -76 24 -209 28 -285 7z"/>
<path d="M5457 2169 c-165 -39 -309 -168 -364 -329 -52 -149 -23 -329 72 -459
209 -283 633 -271 826 24 72 110 99 264 68 391 -42 175 -189 323 -364 369 -64
16 -177 18 -238 4z"/>
</g>
</svg>
