<?xml version="1.0" encoding="utf-8"?>
<!-- Generator: Adobe Illustrator 25.0.0, SVG Export Plug-In . SVG Version: 6.00 Build 0)  -->
<svg version="1.1" id="Camada_1" xmlns="http://www.w3.org/2000/svg" xmlns:xlink="http://www.w3.org/1999/xlink" x="0px" y="0px"
	 viewBox="0 0 308 312.1" style="enable-background:new 0 0 308 312.1;" xml:space="preserve">
<style type="text/css">
	.st0{fill:#EE632E;}
	.st1{fill:#ED7C2F;}
	.st2{fill:#EA902F;}
</style>
<path class="st0" d="M105.7,312.1H55.6c-2.9-10.4-8.6-21.9-19.4-32.7C23.5,266.7,10.7,261.1,0,258.9v-49.1c0.3,0.1,0.5,0.1,0.8,0.1
	c20.5,2.4,45.6,11,69.7,35.1C93.3,267.8,102.6,291.9,105.7,312.1z"/>
<path class="st1" d="M208.7,312h-49.1c-5.3-30.3-20-66.9-55.5-102.3c-36.5-36.5-73.8-50.3-104-54.4v-49c0.2,0.1,0.5,0.1,0.7,0.1
	c39.9,4.1,89.6,21.1,137.6,69C185.4,222.4,203.3,271.9,208.7,312z"/>
<path class="st2" d="M308,312h-48.2c-10.4-59.3-41.1-123.6-85.7-169.4C127.2,96.9,60.6,65.7,0,56.2v-48
	c62.1,9.3,140.6,33.5,208.3,99.9l0.4,0.4C273.5,174.5,298.1,250.7,308,312z"/>
</svg>
