<?xml version="1.0" encoding="utf-8"?>
<!-- Generator: Adobe Illustrator 25.0.0, SVG Export Plug-In . SVG Version: 6.00 Build 0)  -->
<svg version="1.1" id="Camada_1" xmlns="http://www.w3.org/2000/svg" xmlns:xlink="http://www.w3.org/1999/xlink" x="0px" y="0px"
	 viewBox="0 0 640 360" style="enable-background:new 0 0 640 360;" xml:space="preserve">
<style type="text/css">
	.st0{fill:#F4F4FE;}
</style>
<path class="st0" d="M216.4,295.3h-46.8c-0.3,0-0.5,0.2-0.6,0.5l-7.7,57.2c0,3.6,2.9,6.6,6.5,6.6h49.6c3.6,0,6.5-2.9,6.5-6.5
	l-6.9-57.3C217,295.5,216.7,295.3,216.4,295.3z M217.4,358.4h-49.6c-2.9,0-5.3-2.4-5.3-5.3l0,0l0,0l7.6-56.7h45.8l0,0.4l6.8,56.3
	C222.7,356.1,220.3,358.4,217.4,358.4z"/>
<path class="st0" d="M180.9,304.9c-1.8,0-3.4,1.5-3.4,3.4s1.5,3.4,3.4,3.4c1.8,0,3.4-1.5,3.4-3.4S182.7,304.9,180.9,304.9z
	 M180.9,310.5c-1.2,0-2.2-1-2.2-2.2c0-1.2,1-2.2,2.2-2.2c1.2,0,2.2,1,2.2,2.2C183.1,309.5,182.1,310.5,180.9,310.5z"/>
<path class="st0" d="M204.3,304.9c-1.8,0-3.4,1.5-3.4,3.4s1.5,3.4,3.4,3.4s3.4-1.5,3.4-3.4S206.2,304.9,204.3,304.9z M204.3,310.5
	c-1.2,0-2.2-1-2.2-2.2c0-1.2,1-2.2,2.2-2.2s2.2,1,2.2,2.2C206.5,309.5,205.5,310.5,204.3,310.5z"/>
<path class="st0" d="M205.1,308.1c1.3-3.4,2-7.4,2-11.4c0-12.3-6.5-22.3-14.5-22.3c-8,0-14.5,10-14.5,22.3c0,4.1,0.7,8,2.1,11.5
	c0.1,0.3,0.5,0.4,0.8,0.3c0.3-0.1,0.4-0.5,0.3-0.8c-1.3-3.3-2-7.2-2-11.1c0-11.7,6-21.2,13.4-21.2s13.4,9.5,13.4,21.2
	c0,3.9-0.7,7.7-1.9,11c-0.1,0.3,0,0.6,0.3,0.8C204.7,308.6,205,308.4,205.1,308.1z"/>
<path class="st0" d="M322.3,263.3h-35.9c-0.2,0-0.4,0.1-0.5,0.2l-16.2,20.4c-0.1,0.1-0.1,0.2-0.1,0.4v65.9c0,4.3,3.5,7.9,7.9,7.9
	H331c4.3,0,7.9-3.5,7.9-7.9v-65.9c0-0.1,0-0.3-0.1-0.4l-16-20.4C322.6,263.4,322.4,263.3,322.3,263.3z M337.6,350.2
	c0,3.7-3,6.7-6.7,6.7h-53.5c-3.7,0-6.7-3-6.7-6.7v-65.7l15.9-20H322l15.7,20V350.2z"/>
<path class="st0" d="M326.9,353.1h-2.8c-0.3,0-0.5-0.2-0.5-0.5s0.2-0.5,0.5-0.5h2.8c0.3,0,0.5,0.2,0.5,0.5S327.2,353.1,326.9,353.1z
	 M321.4,353.1h-2.8c-0.3,0-0.5-0.2-0.5-0.5s0.2-0.5,0.5-0.5h2.8c0.3,0,0.5,0.2,0.5,0.5S321.7,353.1,321.4,353.1z M315.9,353.1h-2.8
	c-0.3,0-0.5-0.2-0.5-0.5s0.2-0.5,0.5-0.5h2.8c0.3,0,0.5,0.2,0.5,0.5S316.2,353.1,315.9,353.1z M310.4,353.1h-2.8
	c-0.3,0-0.5-0.2-0.5-0.5s0.2-0.5,0.5-0.5h2.8c0.3,0,0.5,0.2,0.5,0.5S310.6,353.1,310.4,353.1z M304.8,353.1h-2.8
	c-0.3,0-0.5-0.2-0.5-0.5s0.2-0.5,0.5-0.5h2.8c0.3,0,0.5,0.2,0.5,0.5S305.1,353.1,304.8,353.1z M299.3,353.1h-2.8
	c-0.3,0-0.5-0.2-0.5-0.5s0.2-0.5,0.5-0.5h2.8c0.3,0,0.5,0.2,0.5,0.5S299.6,353.1,299.3,353.1z M293.8,353.1H291
	c-0.3,0-0.5-0.2-0.5-0.5s0.2-0.5,0.5-0.5h2.8c0.3,0,0.5,0.2,0.5,0.5S294.1,353.1,293.8,353.1z M288.2,353.1h-2.8
	c-0.3,0-0.5-0.2-0.5-0.5s0.2-0.5,0.5-0.5h2.8c0.3,0,0.5,0.2,0.5,0.5S288.5,353.1,288.2,353.1z M282.7,353.1h-1.6
	c-0.4,0-0.9,0-1.3-0.1c-0.3-0.1-0.5-0.3-0.4-0.6c0.1-0.3,0.3-0.5,0.6-0.4c0.4,0.1,0.7,0.1,1.1,0.1h1.6c0.3,0,0.5,0.2,0.5,0.5
	S283,353.1,282.7,353.1z M329.6,352.6c-0.2,0-0.4-0.1-0.5-0.3c-0.1-0.3,0-0.6,0.3-0.7c0.8-0.3,1.5-0.8,2-1.5c0.2-0.2,0.5-0.2,0.7,0
	c0.2,0.2,0.2,0.5,0,0.7c-0.7,0.8-1.5,1.4-2.4,1.8C329.8,352.6,329.7,352.6,329.6,352.6z M277.5,351.8c-0.1,0-0.2,0-0.3-0.1
	c-0.8-0.6-1.4-1.4-1.9-2.3c-0.1-0.3,0-0.6,0.2-0.7c0.3-0.1,0.6,0,0.7,0.2c0.4,0.8,1,1.4,1.6,1.9c0.2,0.2,0.3,0.5,0.1,0.7
	C277.8,351.8,277.6,351.8,277.5,351.8z M333.2,348.6c-0.1,0-0.1,0-0.2,0c-0.3-0.1-0.4-0.4-0.3-0.6c0.2-0.6,0.3-1.2,0.3-1.8v-0.8
	c0-0.3,0.2-0.5,0.5-0.5c0.3,0,0.5,0.2,0.5,0.5v0.8c0,0.7-0.1,1.4-0.3,2.1C333.6,348.4,333.4,348.6,333.2,348.6z M274.9,347.1
	c-0.3,0-0.5-0.2-0.5-0.5c0-0.2,0-0.4,0-0.6v-2.2c0-0.3,0.2-0.5,0.5-0.5s0.5,0.2,0.5,0.5v2.2c0,0.2,0,0.3,0,0.5
	C275.5,346.8,275.3,347.1,274.9,347.1C275,347.1,274.9,347.1,274.9,347.1z M333.5,343.1c-0.3,0-0.5-0.2-0.5-0.5v-2.8
	c0-0.3,0.2-0.5,0.5-0.5c0.3,0,0.5,0.2,0.5,0.5v2.8C334,342.8,333.8,343.1,333.5,343.1z M274.9,341.6c-0.3,0-0.5-0.2-0.5-0.5v-2.8
	c0-0.3,0.2-0.5,0.5-0.5s0.5,0.2,0.5,0.5v2.8C275.4,341.4,275.2,341.6,274.9,341.6z M333.5,337.5c-0.3,0-0.5-0.2-0.5-0.5v-2.8
	c0-0.3,0.2-0.5,0.5-0.5c0.3,0,0.5,0.2,0.5,0.5v2.8C334,337.3,333.8,337.5,333.5,337.5z M274.9,336.1c-0.3,0-0.5-0.2-0.5-0.5v-2.8
	c0-0.3,0.2-0.5,0.5-0.5s0.5,0.2,0.5,0.5v2.8C275.4,335.8,275.2,336.1,274.9,336.1z M333.5,332c-0.3,0-0.5-0.2-0.5-0.5v-2.8
	c0-0.3,0.2-0.5,0.5-0.5c0.3,0,0.5,0.2,0.5,0.5v2.8C334,331.8,333.8,332,333.5,332z M274.9,330.5c-0.3,0-0.5-0.2-0.5-0.5v-2.8
	c0-0.3,0.2-0.5,0.5-0.5s0.5,0.2,0.5,0.5v2.8C275.4,330.3,275.2,330.5,274.9,330.5z M333.5,326.5c-0.3,0-0.5-0.2-0.5-0.5v-2.8
	c0-0.3,0.2-0.5,0.5-0.5c0.3,0,0.5,0.2,0.5,0.5v2.8C334,326.3,333.8,326.5,333.5,326.5z M274.9,325c-0.3,0-0.5-0.2-0.5-0.5v-2.8
	c0-0.3,0.2-0.5,0.5-0.5s0.5,0.2,0.5,0.5v2.8C275.4,324.8,275.2,325,274.9,325z M333.5,321c-0.3,0-0.5-0.2-0.5-0.5v-2.8
	c0-0.3,0.2-0.5,0.5-0.5c0.3,0,0.5,0.2,0.5,0.5v2.8C334,320.7,333.8,321,333.5,321z M274.9,319.5c-0.3,0-0.5-0.2-0.5-0.5v-2.8
	c0-0.3,0.2-0.5,0.5-0.5s0.5,0.2,0.5,0.5v2.8C275.4,319.2,275.2,319.5,274.9,319.5z M333.5,315.4c-0.3,0-0.5-0.2-0.5-0.5v-2.8
	c0-0.3,0.2-0.5,0.5-0.5c0.3,0,0.5,0.2,0.5,0.5v2.8C334,315.2,333.8,315.4,333.5,315.4z M274.9,313.9c-0.3,0-0.5-0.2-0.5-0.5v-2.8
	c0-0.3,0.2-0.5,0.5-0.5s0.5,0.2,0.5,0.5v2.8C275.4,313.7,275.2,313.9,274.9,313.9z M333.5,309.9c-0.3,0-0.5-0.2-0.5-0.5v-2.8
	c0-0.3,0.2-0.5,0.5-0.5c0.3,0,0.5,0.2,0.5,0.5v2.8C334,309.7,333.8,309.9,333.5,309.9z M274.9,308.4c-0.3,0-0.5-0.2-0.5-0.5v-2.8
	c0-0.3,0.2-0.5,0.5-0.5s0.5,0.2,0.5,0.5v2.8C275.4,308.2,275.2,308.4,274.9,308.4z M333.5,304.4c-0.3,0-0.5-0.2-0.5-0.5v-2.8
	c0-0.3,0.2-0.5,0.5-0.5c0.3,0,0.5,0.2,0.5,0.5v2.8C334,304.1,333.8,304.4,333.5,304.4z M274.9,302.9c-0.3,0-0.5-0.2-0.5-0.5v-2.8
	c0-0.3,0.2-0.5,0.5-0.5s0.5,0.2,0.5,0.5v2.8C275.4,302.7,275.2,302.9,274.9,302.9z M333.5,298.8c-0.3,0-0.5-0.2-0.5-0.5v-2.8
	c0-0.3,0.2-0.5,0.5-0.5c0.3,0,0.5,0.2,0.5,0.5v2.8C334,298.6,333.8,298.8,333.5,298.8z M274.9,297.4c-0.3,0-0.5-0.2-0.5-0.5v-2.8
	c0-0.3,0.2-0.5,0.5-0.5s0.5,0.2,0.5,0.5v2.8C275.4,297.1,275.2,297.4,274.9,297.4z M333.5,293.3c-0.3,0-0.5-0.2-0.5-0.5V290
	c0-0.3,0.2-0.5,0.5-0.5c0.3,0,0.5,0.2,0.5,0.5v2.8C334,293.1,333.8,293.3,333.5,293.3z M274.9,291.8c-0.3,0-0.5-0.2-0.5-0.5v-2.8
	c0-0.3,0.2-0.5,0.5-0.5s0.5,0.2,0.5,0.5v2.8C275.4,291.6,275.2,291.8,274.9,291.8z M333.5,287.8c-0.3,0-0.5-0.2-0.5-0.5v0l-1.5-1.9
	c-0.2-0.2-0.1-0.6,0.1-0.7c0.2-0.2,0.6-0.1,0.7,0.1l1.6,2.1c0.1,0.1,0.1,0.2,0.1,0.3v0.2C334,287.6,333.8,287.8,333.5,287.8z
	 M275.7,286.6c-0.1,0-0.2,0-0.3-0.1c-0.2-0.2-0.3-0.5-0.1-0.7l1.7-2.2c0.2-0.2,0.5-0.3,0.7-0.1c0.2,0.2,0.3,0.5,0.1,0.7l-1.7,2.2
	C276,286.5,275.9,286.6,275.7,286.6z M330.2,283.3c-0.2,0-0.3-0.1-0.4-0.2l-1.7-2.2c-0.2-0.2-0.1-0.6,0.1-0.7
	c0.2-0.2,0.6-0.1,0.7,0.1l1.7,2.2c0.2,0.2,0.1,0.6-0.1,0.7C330.5,283.3,330.4,283.3,330.2,283.3z M279.1,282.2c-0.1,0-0.2,0-0.3-0.1
	c-0.2-0.2-0.3-0.5-0.1-0.7l1.7-2.2c0.2-0.2,0.5-0.3,0.7-0.1c0.2,0.2,0.3,0.5,0.1,0.7l-1.7,2.2C279.4,282.1,279.2,282.2,279.1,282.2z
	 M326.9,278.9c-0.2,0-0.3-0.1-0.4-0.2l-1.7-2.2c-0.2-0.2-0.1-0.6,0.1-0.7c0.2-0.2,0.6-0.1,0.7,0.1l1.7,2.2c0.2,0.2,0.1,0.6-0.1,0.7
	C327.1,278.9,327,278.9,326.9,278.9z M282.4,277.8c-0.1,0-0.2,0-0.3-0.1c-0.2-0.2-0.3-0.5-0.1-0.7l1.7-2.2c0.2-0.2,0.5-0.3,0.7-0.1
	c0.2,0.2,0.3,0.5,0.1,0.7l-1.7,2.2C282.7,277.7,282.6,277.8,282.4,277.8z M323.6,274.5c-0.2,0-0.3-0.1-0.4-0.2l-1.7-2.2
	c-0.2-0.2-0.1-0.6,0.1-0.7c0.2-0.2,0.6-0.1,0.7,0.1l1.7,2.2c0.2,0.2,0.1,0.6-0.1,0.7C323.8,274.5,323.7,274.5,323.6,274.5z
	 M285.8,273.4c-0.1,0-0.2,0-0.3-0.1c-0.2-0.2-0.3-0.5-0.1-0.7l1.7-2.2c0.2-0.2,0.5-0.3,0.7-0.1c0.2,0.2,0.3,0.5,0.1,0.7l-1.7,2.2
	C286.1,273.3,285.9,273.4,285.8,273.4z M320.3,270.1c-0.2,0-0.3-0.1-0.4-0.2l-0.4-0.5H317c-0.3,0-0.5-0.2-0.5-0.5s0.2-0.5,0.5-0.5
	h2.8c0.2,0,0.3,0.1,0.4,0.2l0.5,0.7c0.2,0.2,0.1,0.6-0.1,0.7C320.5,270.1,320.4,270.1,320.3,270.1z M314.2,269.4h-2.8
	c-0.3,0-0.5-0.2-0.5-0.5s0.2-0.5,0.5-0.5h2.8c0.3,0,0.5,0.2,0.5,0.5S314.5,269.4,314.2,269.4z M308.7,269.4h-2.8
	c-0.3,0-0.5-0.2-0.5-0.5s0.2-0.5,0.5-0.5h2.8c0.3,0,0.5,0.2,0.5,0.5S309,269.4,308.7,269.4z M303.1,269.4h-2.8
	c-0.3,0-0.5-0.2-0.5-0.5s0.2-0.5,0.5-0.5h2.8c0.3,0,0.5,0.2,0.5,0.5S303.4,269.4,303.1,269.4z M297.6,269.4h-2.8
	c-0.3,0-0.5-0.2-0.5-0.5s0.2-0.5,0.5-0.5h2.8c0.3,0,0.5,0.2,0.5,0.5S297.9,269.4,297.6,269.4z M292.1,269.4h-2.8
	c-0.3,0-0.5-0.2-0.5-0.5s0.2-0.5,0.5-0.5h2.8c0.3,0,0.5,0.2,0.5,0.5S292.4,269.4,292.1,269.4z"/>
<g>
	<path class="st0" d="M305.7,277.4c-4,0-7.3,3.3-7.3,7.3c0,4,3.3,7.3,7.3,7.3c4,0,7.3-3.3,7.3-7.3
		C313,280.6,309.8,277.4,305.7,277.4z M305.7,290.7c-3.4,0-6.1-2.7-6.1-6.1c0-3.4,2.7-6.1,6.1-6.1s6.1,2.7,6.1,6.1
		C311.8,288,309.1,290.7,305.7,290.7z"/>
	<path class="st0" d="M305.7,281.5c-1.8,0-3.2,1.4-3.2,3.2s1.4,3.2,3.2,3.2c1.8,0,3.2-1.4,3.2-3.2S307.5,281.5,305.7,281.5z
		 M305.7,286.6c-1.1,0-2-0.9-2-2c0-1.1,0.9-2,2-2c1.1,0,2,0.9,2,2C307.7,285.7,306.8,286.6,305.7,286.6z"/>
</g>
<path class="st0" d="M312.9,261.6c-0.2-10.4-2.8-17.1-6.6-17.1c-4.4,0-6.7,10.8-6.7,20.9c0,12.4,1.9,18.9,5.9,19.9
	c0.3,0.1,0.7-0.1,0.7-0.4c0.1-0.3-0.1-0.7-0.4-0.7c-2.3-0.6-5-4.3-5-18.7c0-11.8,2.9-19.7,5.5-19.7c3,0,5.2,6.6,5.4,15.9
	c0,0.3,0.3,0.6,0.6,0.6C312.6,262.2,312.9,262,312.9,261.6z"/>
<path class="st0" d="M563.3,359.4c22.7,0,41.2-18.5,41.2-41.2c0-15.8-8.8-30-23.1-37l-0.8-0.4l-0.8-2.5l0.5-0.8
	c2.8-4.4,4.9-7.7,6.2-9.9c1.4-2.2,0.9-3.8,0.5-4.5c-1.1-1.9-3.7-2.6-5.7-2.6c-0.6,0-1.5,0.1-2.3,0.4c-0.7,0.3-2.1,0.8-3.7,0.8
	c-2,0-3.7-0.8-4.9-2.5c-2.6-3.5-6.7-3.6-7.2-3.6c-0.5,0-4.5,0.1-7.1,3.6c-1.2,1.6-2.9,2.5-4.9,2.5c-1.6,0-3-0.5-3.7-0.8
	c-0.8-0.3-1.7-0.4-2.3-0.4c-1.9,0-4.6,0.7-5.7,2.6c-0.4,0.7-0.9,2.3,0.5,4.5c1.3,2.2,3.5,5.7,6.4,10.1l0.4,0.7l-0.4,2.2l-0.8,0.4
	c-14.3,6.8-23.5,21.4-23.5,37.2C522.1,340.9,540.6,359.4,563.3,359.4z M541.7,266.6L541.7,266.6c-0.6-1.1-0.8-1.9-0.4-2.6
	c0.6-1.1,2.5-1.6,4-1.6c0.6,0,1.2,0.1,1.5,0.2c1,0.4,2.6,1,4.5,1c2.6,0,4.9-1.1,6.5-3.2c2.1-2.7,5.3-2.8,5.6-2.8
	c0.1,0,3.5,0,5.6,2.8c1.6,2.1,3.8,3.2,6.5,3.2c1.8,0,3.4-0.5,4.5-1c0.3-0.1,0.9-0.2,1.5-0.2c1.5,0,3.4,0.6,4,1.6
	c0.4,0.7,0.2,1.5-0.4,2.6c-1.4,2.3-3.6,5.8-6.5,10.4l-1.3,2.5l-0.9-0.3c-1.1-0.4-2.2-0.7-3.4-1l-1.4-0.3l2.5-5.8
	c0.1-0.2,0.1-0.5,0-0.7c-0.1-0.2-0.3-0.4-0.5-0.5c-0.2-0.1-0.5-0.1-0.7,0c-0.2,0.1-0.4,0.3-0.5,0.5l-2.3,6.3l-0.9-0.1
	c-1.2-0.2-2.5-0.3-3.9-0.3l-1.2,0l0.4-12.5c0-0.5-0.4-1-1-1c-0.5,0-1,0.4-1,1l0,12.5l-1.1,0.1c-2,0.1-4,0.3-5.8,0.7l-0.9,0.2
	l-2.6-7.6c-0.1-0.2-0.3-0.4-0.5-0.5c-0.2-0.1-0.5-0.1-0.7,0c-0.5,0.2-0.7,0.8-0.5,1.3l2.8,7.2l-1.3,0.4c-0.6,0.2-1.1,0.3-1.6,0.5
	l-0.9,0.3l-1-2.6C545.3,272.4,543.1,268.8,541.7,266.6z M551.6,280.7L551.6,280.7c0.6-0.2,1.2-0.4,1.8-0.5l0.3-0.1
	c0.5-0.1,1-0.2,1.5-0.3l0.5-0.1c0.4-0.1,0.9-0.2,1.3-0.2l0.6-0.1c0.4-0.1,0.9-0.1,1.3-0.2l0.6-0.1c0.5,0,0.9-0.1,1.4-0.1l0.5,0
	c1.3-0.1,2.6-0.1,3.8,0l0.6,0c0.4,0,0.9,0.1,1.3,0.1l0.6,0.1c0.4,0,0.9,0.1,1.3,0.2l0.5,0.1c0.5,0.1,1,0.2,1.4,0.3l0.5,0.1
	c0.5,0.1,1,0.2,1.4,0.3l0.4,0.1c0.6,0.1,1.1,0.3,1.7,0.5c16.6,5.2,27.7,20.3,27.7,37.5c0,21.7-17.6,39.3-39.3,39.3
	c-21.7,0-39.3-17.6-39.3-39.3C524,300.9,535.1,285.8,551.6,280.7z"/>
<path class="st0" d="M587.3,339.7c-1.2,1.4-2.6,2.6-4,3.8c-0.2,0.2-0.3,0.4-0.4,0.6c0,0.3,0,0.5,0.2,0.7c0.2,0.2,0.4,0.3,0.7,0.4
	c0.3,0,0.5,0,0.7-0.2c1.5-1.2,3-2.6,4.3-4c0.2-0.2,0.3-0.4,0.2-0.7c0-0.3-0.1-0.5-0.3-0.7c-0.2-0.2-0.4-0.2-0.7-0.2
	C587.7,339.4,587.4,339.5,587.3,339.7z"/>
<path class="st0" d="M592.8,335.3c3-5.2,4.6-11.1,4.6-17.1c0-15.8-10.7-29.4-26-33.2c-0.1,0-0.2,0-0.2,0c-0.2,0-0.3,0-0.5,0.1
	c-0.2,0.1-0.4,0.3-0.4,0.6c-0.1,0.3,0,0.5,0.1,0.7c0.1,0.2,0.3,0.4,0.6,0.4c14.4,3.5,24.5,16.4,24.5,31.3c0,5.7-1.5,11.3-4.3,16.1
	c-0.1,0.2-0.2,0.5-0.1,0.7c0.1,0.3,0.2,0.5,0.5,0.6C592,335.9,592.6,335.7,592.8,335.3z"/>
<path class="st0" d="M574.1,328c0-1.3-0.2-2.5-0.6-3.4c-0.4-0.9-1-1.8-1.7-2.5c-0.8-0.8-1.8-1.5-3-2.2c-1.3-0.7-3-1.5-5.1-2.3
	c-2.5-1-4.2-2-5.3-3.1c-1.2-1.3-1.9-3-1.9-5c0-2.1,0.6-3.9,1.9-5.2c1.3-1.3,3-2,5.2-2c2.2,0,4.1,0.9,5.5,2.5c0.9,1,1.4,2.4,1.7,4h3
	c-0.3-1.9-1-3.4-2-4.7c-1.4-1.7-3.4-2.8-6-3.1l-1.9-0.3l-1.9,0.2c-2.7,0.3-4.8,1.2-6.3,2.7c-1.5,1.5-2.2,3.4-2.2,5.8
	c0,1.4,0.2,2.6,0.6,3.6c0.4,1,1.1,1.9,1.8,2.6c0.9,0.8,1.9,1.5,3.1,2.1c1.3,0.7,3,1.4,4.9,2.1c2.3,0.9,4,1.9,5.1,3
	c1.3,1.3,1.9,3.1,1.9,5.2c0,2.1-0.7,3.9-2.2,5.2c-1.4,1.3-3.2,1.9-5.4,1.9c-2.6,0-4.7-0.9-6.2-2.5c-1-1.1-1.6-2.5-1.9-4.2h-3
	c0.3,2,1.1,3.6,2.2,4.9c1.6,1.8,4,2.8,7.1,3.2l1.7,0.2l2.1-0.2c2.8-0.3,5-1.2,6.5-2.7C573.4,332.3,574.1,330.4,574.1,328z"/>
<rect x="563.2" y="295.1" class="st0" width="1.5" height="6"/>
<rect x="563.2" y="335.8" class="st0" width="1.5" height="6"/>
<path class="st0" d="M126.6,273.3c0-0.1-0.1-0.3-0.3-0.3l-23.8-17.5v-7.7c0-5.5-4.4-9.9-9.9-9.9H35.5c-5.5,0-9.9,4.4-9.9,9.9v7.8
	L0.3,273c-0.2,0.1-0.3,0.4-0.3,0.6c0,0,0,0,0,0.1v7.8c0,4.7,3,8.7,7.1,10.3v15.3v23.6v22.6v0.2c0,0.3,0.3,0.5,0.6,0.5h3.9v2.9
	c0,1.8,1.5,3.2,3.2,3.2h2.3c1.8,0,3.2-1.5,3.2-3.2v-2.9h5.6h0.1h18.4h0.1h18.4h18.6h18.4h0.1h5.5v2.9c0,1.8,1.5,3.2,3.3,3.2h2.3
	c1.8,0,3.2-1.5,3.2-3.2v-2.9h4.1c0.4,0,0.6-0.2,0.6-0.5v-0.2v-22.6v-38.8c4.3-1.5,7.4-5.6,7.4-10.4v-7.8
	C126.7,273.5,126.7,273.4,126.6,273.3z M104.5,274.3v7.2c0,5.4-4.4,9.8-9.8,9.8c-5.4,0-9.8-4.4-9.8-9.8v-7.2H104.5z M83.6,274.3v7.2
	c0,5.4-4.4,9.8-9.8,9.8c-5.4,0-9.8-4.4-9.8-9.8v-7.2H83.6z M62.7,274.3v7.2c0,5.4-4.4,9.8-9.8,9.8c-5.4,0-9.8-4.4-9.8-9.8v-7.2H62.7
	z M41.8,274.3v7.2c0,5.4-4.4,9.8-9.8,9.8c-5.4,0-9.8-4.4-9.8-9.8v-7.2H41.8z M89,256.3l5.2,5.8l9.5,10.7h-19l-6.9-16.6H89z
	 M76.3,256.3l6.9,16.6H64l0.8-16.6H76.3z M63.1,265.1l-0.4,7.7H43.5l8.6-16.6h11.5L63.1,265.1z M48.2,260.9L42,272.8h-19l16.3-16.6
	h11.2L48.2,260.9z M105.4,272.8l-3.6-4l-11.1-12.5h10.9l22.4,16.6H105.4z M26.9,247.7c0-4.8,3.9-8.6,8.6-8.6h57.1
	c4.8,0,8.6,3.9,8.6,8.6v7.3h-12H76.8H64.2H51.7H39.1H26.9V247.7z M26.8,256.3h10.8l-16.3,16.6H2.7L26.8,256.3z M1.3,281.4v-7.2h19.6
	v7.2c0,5.4-4.4,9.8-9.8,9.8C5.7,291.2,1.3,286.8,1.3,281.4z M81.1,331.3v21.3H63.8v-21.3H81.1z M99.5,352.6H82.4v-21.3h17.1V352.6z
	 M62.5,352.6H45.4v-21.3h17.1V352.6z M44,352.6H26.9v-21.3H44V352.6z M25.5,352.6h-5.6h-7.5H8.4v-21.3h17.1V352.6z M19.3,356.7
	c0,1.1-0.9,2-2,2H15c-1.1,0-2-0.9-2-2v-2.9h6.3V356.7z M113.3,356.7c0,1.1-0.9,2-2,2H109c-1.1,0-2-0.9-2-2v-2.9h6.3V356.7z
	 M118,352.6h-4.1h-7.5h-5.5v-21.3H118V352.6z M118,330h-17.8h-0.1H81.8H63.2H44.8h-0.1H26.3h-0.1H8.4v-33.7v-1v-3.1
	c0.9,0.2,1.7,0.3,2.6,0.3c4.8,0,9-3.1,10.5-7.5c1.5,4.3,5.6,7.5,10.5,7.5c4.8,0,9-3.1,10.5-7.5c1.5,4.3,5.6,7.5,10.5,7.5
	c4.8,0,9-3.1,10.5-7.5c1.5,4.3,5.6,7.5,10.5,7.5c4.8,0,9-3.1,10.5-7.5c1.5,4.3,5.6,7.5,10.5,7.5c4.8,0,9-3.1,10.5-7.5
	c1.5,4.3,5.6,7.5,10.5,7.5c0.8,0,1.6-0.1,2.4-0.3V330z M125.4,281.4c0,5.4-4.4,9.8-9.8,9.8c-5.4,0-9.8-4.4-9.8-9.8v-7.2h19.6V281.4z
	"/>
<path class="st0" d="M391.3,328.3l81.3,0.1c7.3,0,13.3-5.9,13.3-13.2l0.1-51c0-0.2-0.1-0.4-0.2-0.5c-0.1-0.1-0.3-0.2-0.5-0.2
	l-104-0.2l-1.9-7.2c-0.1-0.3-0.3-0.5-0.6-0.6l-8.6-1.7v1.6l7.8,1.5l18.2,69.9l-4.7,0c-2.3,0-4.5,0.9-6.1,2.5
	c-1.6,1.6-2.5,3.8-2.5,6.1c0,2.3,0.9,4.5,2.5,6.1c1.6,1.6,3.8,2.5,6.1,2.5l10.4,0l-0.5,1.7c-0.3,0.9-0.4,1.9-0.4,2.8
	c0,2.8,1.1,5.4,3.1,7.4c2,2,4.6,3.1,7.4,3.1c2.8,0,5.4-1.1,7.4-3.1c2-2,3.1-4.6,3.1-7.4c0-0.9-0.1-1.9-0.4-2.8l-0.5-1.8l28.6,0
	l-0.5,1.7c-0.3,0.9-0.4,1.9-0.4,2.8c0,5.8,4.7,10.5,10.5,10.5c2.8,0,5.4-1.1,7.4-3.1c2-2,3.1-4.6,3.1-7.4c0-0.9-0.1-1.9-0.4-2.8
	l-0.5-1.8l16.4,0c0.4,0,0.8-0.3,0.8-0.8c0-0.4-0.3-0.8-0.8-0.8l-17.5,0l-0.4-0.5c-2-2.5-5-3.9-8.1-3.9c-3.2,0-6.1,1.4-8.1,3.9
	l-0.4,0.5l-30.6-0.1l-0.4-0.5c-2-2.5-5-3.9-8.1-3.9c-3.2,0-6.1,1.4-8.1,3.9l-0.4,0.5l-11.4,0c-1.9,0-3.7-0.7-5-2.1
	c-1.3-1.3-2.1-3.1-2.1-5.1c0-1.9,0.7-3.7,2.1-5C387.6,329.1,389.4,328.3,391.3,328.3z M460.7,265l23.6,0l0,16.9l-23.6,0L460.7,265z
	 M460.7,283.4l23.6,0l0,20.2l-23.6,0L460.7,283.4z M460.7,305.1l23.6,0l0,10.1c0,6.4-5.3,11.7-11.7,11.7l-11.9,0L460.7,305.1z
	 M435.3,264.9l23.9,0l0,16.9l-23.9,0L435.3,264.9z M435.3,283.3l23.9,0l0,20.2l-23.9,0L435.3,283.3z M435.3,305.1l23.9,0l0,21.8
	l-23.9,0L435.3,305.1z M410,264.9l23.8,0l0,16.9l-23.8,0L410,264.9z M409.9,283.3l23.8,0l0,20.2l-23.8,0L409.9,283.3z M409.9,305
	l23.8,0l0,21.8l-23.8,0L409.9,305z M381.9,264.9l26.6,0l0,16.9l-22.3,0L381.9,264.9z M386.6,283.3l21.9,0l0,20.2l-16.7,0
	L386.6,283.3z M392.1,305l16.3,0l0,21.8l-10.7,0L392.1,305z M459.1,340.5c4.5,0,8.2,3.7,8.2,8.2c0,4.5-3.7,8.2-8.2,8.2
	c-4.5,0-8.2-3.7-8.2-8.2C450.9,344.2,454.6,340.5,459.1,340.5z M411.3,340.5c4.5,0,8.2,3.7,8.2,8.2c0,4.5-3.7,8.2-8.2,8.2
	c-4.5,0-8.2-3.7-8.2-8.2C403.1,344.2,406.8,340.5,411.3,340.5z"/>
</svg>
