<?xml version="1.0" encoding="utf-8"?>
<!-- Generator: Adobe Illustrator 25.0.0, SVG Export Plug-In . SVG Version: 6.00 Build 0)  -->
<svg version="1.1" id="Camada_1" xmlns="http://www.w3.org/2000/svg" xmlns:xlink="http://www.w3.org/1999/xlink" x="0px" y="0px"
	 viewBox="0 0 308 312.1" style="enable-background:new 0 0 308 312.1;" xml:space="preserve">
<style type="text/css">
	.st0{fill:#EE632E;}
	.st1{fill:#ED7C2F;}
	.st2{fill:#EA902F;}
</style>
<path class="st0" d="M202.3,312.1h50.1c2.9-10.4,8.6-21.9,19.4-32.7c12.7-12.7,25.5-18.3,36.2-20.5v-49.1c-0.3,0.1-0.5,0.1-0.8,0.1
	c-20.5,2.4-45.6,11-69.7,35.1C214.7,267.8,205.4,291.9,202.3,312.1z"/>
<path class="st1" d="M99.3,312h49.1c5.3-30.3,20-66.9,55.5-102.3c36.5-36.5,73.8-50.3,104-54.4v-49c-0.2,0.1-0.5,0.1-0.7,0.1
	c-39.9,4.1-89.6,21.1-137.6,69C122.6,222.4,104.7,271.9,99.3,312z"/>
<path class="st2" d="M0,312h48.2c10.4-59.3,41.1-123.6,85.7-169.4C180.8,96.9,247.4,65.7,308,56.2v-48
	c-62.1,9.3-140.6,33.5-208.3,99.9l-0.4,0.4C34.5,174.5,9.9,250.7,0,312z"/>
</svg>
