<?xml version="1.0" encoding="utf-8"?>
<!-- Generator: Adobe Illustrator 25.0.0, SVG Export Plug-In . SVG Version: 6.00 Build 0)  -->
<svg version="1.1" id="Camada_1" xmlns="http://www.w3.org/2000/svg" xmlns:xlink="http://www.w3.org/1999/xlink" x="0px" y="0px"
	 viewBox="0 0 308 312.1" style="enable-background:new 0 0 308 312.1;" xml:space="preserve">
<style type="text/css">
	.st0{fill:#EE632E;}
	.st1{fill:#ED7C2F;}
	.st2{fill:#EA902F;}
</style>
<path class="st0" d="M240.1,240.7c-24.4,24.4-33.2,49.8-35.6,70.6c0,0.3,0,0.5-0.1,0.8h49.8c2.2-10.8,7.9-23.8,20.7-36.6
	c11-11,22.7-16.8,33.2-19.7v-50.8C287.6,208.1,263.2,217.6,240.1,240.7z"/>
<path class="st1" d="M169.5,171.9c-48.6,48.6-65.8,99-70,139.4c0,0.2,0,0.5-0.1,0.7h49.7c4.2-30.6,18.2-68.4,55.2-105.4
	c35.9-35.9,73-50.8,103.7-56.2v-49.8C267.3,106.1,217.2,124.2,169.5,171.9z"/>
<path class="st2" d="M101.7,100.6l-0.4,0.4C34,169.6,9.4,249.2,0,312.1h48.7c9.6-61.4,41.2-128.9,87.6-176.5
	C182.7,90.4,247.9,59.3,308,48.8V0C245.9,10,168.6,35,101.7,100.6z"/>
</svg>
