<?xml version="1.0" encoding="utf-8"?>
<!-- Generator: Adobe Illustrator 25.0.0, SVG Export Plug-In . SVG Version: 6.00 Build 0)  -->
<svg version="1.1" id="Camada_1" xmlns="http://www.w3.org/2000/svg" xmlns:xlink="http://www.w3.org/1999/xlink" x="0px" y="0px"
	 viewBox="0 0 308 312.1" style="enable-background:new 0 0 308 312.1;" xml:space="preserve">
<style type="text/css">
	.st0{fill:#EE632E;}
	.st1{fill:#ED7C2F;}
	.st2{fill:#EA902F;}
</style>
<path class="st0" d="M105.7,0H55.6C52.7,10.4,47,21.9,36.1,32.8C23.5,45.4,10.7,51,0,53.2v49.1c0.3-0.1,0.5-0.1,0.8-0.1
	c20.5-2.4,45.6-11.1,69.7-35.1C93.3,44.3,102.6,20.2,105.7,0z"/>
<path class="st1" d="M208.7,0.1h-49.1c-5.3,30.3-20,66.9-55.5,102.3c-36.5,36.5-73.8,50.3-104,54.5v49c0.2-0.1,0.5-0.1,0.7-0.1
	c39.9-4.1,89.6-21.1,137.6-69.1C185.4,89.7,203.3,40.3,208.7,0.1z"/>
<path class="st2" d="M308,0.1h-48.2c-10.4,59.3-41.1,123.7-85.7,169.4c-47,45.8-113.6,77-174.2,86.4v48.1
	c62.1-9.3,140.6-33.6,208.3-100l0.4-0.4C273.5,137.7,298.1,61.4,308,0.1z"/>
</svg>
