<?xml version="1.0" encoding="utf-8"?>
<!-- Generator: Adobe Illustrator 25.0.0, SVG Export Plug-In . SVG Version: 6.00 Build 0)  -->
<svg version="1.1" id="Camada_1" xmlns="http://www.w3.org/2000/svg" xmlns:xlink="http://www.w3.org/1999/xlink" x="0px" y="0px"
	 viewBox="0 0 308 312.1" style="enable-background:new 0 0 308 312.1;" xml:space="preserve">
<style type="text/css">
	.st0{fill:#EE632E;}
	.st1{fill:#ED7C2F;}
	.st2{fill:#EA902F;}
</style>
<path class="st0" d="M308,105.7V55.6c-10.4-2.9-21.9-8.6-32.7-19.4C262.6,23.5,257,10.7,254.8,0l-49.1,0c0.1,0.3,0.1,0.5,0.1,0.8
	c2.4,20.5,11,45.6,35.1,69.7C263.7,93.3,287.8,102.6,308,105.7z"/>
<path class="st1" d="M307.9,208.7v-49.1c-30.3-5.3-66.9-20-102.3-55.5c-36.5-36.5-50.3-73.8-54.4-104l-49,0c0.1,0.2,0.1,0.5,0.1,0.7
	c4.1,39.9,21.1,89.6,69,137.6C218.3,185.4,267.8,203.3,307.9,208.7z"/>
<path class="st2" d="M307.9,308v-48.2c-59.3-10.4-123.6-41.1-169.4-85.7C92.8,127.2,61.6,60.6,52.1,0l-48,0
	c9.3,62.1,33.5,140.6,99.9,208.3l0.4,0.4C170.4,273.5,246.6,298.1,307.9,308z"/>
</svg>
