<?xml version="1.0" encoding="utf-8"?>
<!-- Generator: Adobe Illustrator 25.0.0, SVG Export Plug-In . SVG Version: 6.00 Build 0)  -->
<svg version="1.1" id="Camada_1" xmlns="http://www.w3.org/2000/svg" xmlns:xlink="http://www.w3.org/1999/xlink" x="0px" y="0px"
	 viewBox="0 0 200 160" style="enable-background:new 0 0 200 160;" xml:space="preserve">
<style type="text/css">
	.st0{fill:#EA902F;}
</style>
<g>
	<path class="st0" d="M73.9,67.5c21.9,0.9,43.7,14.1,43.7,42.2c0,27.5-22,44.9-56.7,45.8c-24.2,0.7-43.2-6.3-57.7-18L20.5,109
		c9.5,9.1,20.5,16,35.8,15.8c14.4-0.2,23.5-7.6,23.8-17.3c0.2-7.8-4-14-13.9-17.1c-7.9-2.5-16.6-2-25.4-1.2l-8.3-17.7l34.4-33.2
		H12.5V7.7h98.7v23.5L73.9,67.5L73.9,67.5z"/>
</g>
<path class="st0" d="M161.9,24c-15.2,0-27.5,12.3-27.5,27.5S146.7,79,161.9,79s27.5-12.3,27.5-27.5S177.1,24,161.9,24z M161.9,75.7
	c-13.4,0-24.2-10.9-24.2-24.2s10.9-24.2,24.2-24.2c13.4,0,24.2,10.9,24.2,24.2S175.2,75.7,161.9,75.7z"/>
</svg>
