<?xml version="1.0" encoding="utf-8"?>
<!-- Generator: Adobe Illustrator 25.0.0, SVG Export Plug-In . SVG Version: 6.00 Build 0)  -->
<svg version="1.1" id="Camada_1" xmlns="http://www.w3.org/2000/svg" xmlns:xlink="http://www.w3.org/1999/xlink" x="0px" y="0px"
	 viewBox="0 0 200 160" style="enable-background:new 0 0 200 160;" xml:space="preserve">
<style type="text/css">
	.st0{fill:#ED7C2F;}
</style>
<g>
	<path class="st0" d="M117,122.1v30.7H5.5V128l56.9-53c8.5-7.8,13.7-14.5,13.7-23.6c0-9.9-7.3-17.3-18.3-17.3c-11.5,0-19,8.6-24,17
		L6.7,34.4c7.4-13,22.6-31,52.5-30.9c30.9,0.1,54.4,17.4,54.4,45.8c0,18.5-8.6,31.6-25.2,46.4l-28.5,26.4L117,122.1z"/>
</g>
<path class="st0" d="M161.6,23.1c-15.2,0-27.5,12.3-27.5,27.5s12.3,27.5,27.5,27.5s27.5-12.3,27.5-27.5
	C189.1,35.5,176.8,23.1,161.6,23.1z M161.6,74.9c-13.4,0-24.2-10.9-24.2-24.2s10.9-24.2,24.2-24.2c13.4,0,24.2,10.9,24.2,24.2
	S175,74.9,161.6,74.9z"/>
</svg>
