<?xml version="1.0" encoding="utf-8"?>
<!-- Generator: Adobe Illustrator 25.0.0, SVG Export Plug-In . SVG Version: 6.00 Build 0)  -->
<svg version="1.1" id="Camada_1" xmlns="http://www.w3.org/2000/svg" xmlns:xlink="http://www.w3.org/1999/xlink" x="0px" y="0px"
	 viewBox="0 0 175.7 160" style="enable-background:new 0 0 175.7 160;" xml:space="preserve">
<style type="text/css">
	.st0{fill:#EE632E;}
</style>
<g>
	<path class="st0" d="M85,7.7v145.1H48.4V47.2L17,65L4.4,36.9l50-29.2l0,0l0,0C54.4,7.7,85,7.7,85,7.7z"/>
</g>
<path class="st0" d="M137.5,23.3c-15.2,0-27.5,12.3-27.5,27.5s12.3,27.5,27.5,27.5S165,66,165,50.8C165,35.7,152.6,23.3,137.5,23.3z
	 M137.5,75.1c-13.4,0-24.2-10.9-24.2-24.2s10.9-24.2,24.2-24.2c13.4,0,24.2,10.9,24.2,24.2S150.8,75.1,137.5,75.1z"/>
</svg>
